<svg width="235" height="68" viewBox="0 0 235 68" fill="none" xmlns="http://www.w3.org/2000/svg">
<g clip-path="url(#clip0_11315_4549)">
<path d="M211.146 13.32C203.167 13.32 198.714 21.2618 196.94 27.9782C202.237 27.1564 208.214 26.3454 212.946 23.6436C215.092 22.3527 216.547 20.4691 216.547 17.9091C216.547 16.8037 216.117 15.7636 215.261 14.7854C214.405 13.8073 213.031 13.32 211.146 13.32ZM232.23 53.6472C232.766 54.2983 232.814 55.2255 232.3 55.8946C225.404 64.8873 212.946 68 203.755 68C196.521 68 188.63 65.52 183.505 60.3527C178.27 54.8801 176.047 47.4473 176.047 40.0217C176.047 33.1855 177.56 26.4037 180.61 20.2655C183.527 14.4836 187.862 9.30546 193.273 5.67273C198.883 1.96364 205.562 0 212.3 0C218.181 0 224.273 1.60727 228.755 5.54547C232.134 8.43999 234.541 12.64 234.541 17.1455C234.541 20.1636 233.942 22.9237 232.741 25.4291C231.539 27.8946 229.442 30.1018 226.44 32.0582C223.483 34.0109 219.478 35.6691 214.419 37.0291C209.405 38.3891 203.086 39.4509 195.456 40.2145C194.625 47.4473 198.446 53.2144 206.899 53.2144C211.918 53.2144 215.338 51.6837 218.387 49.469C221.94 46.8908 226.833 47.0764 229.61 50.4618L232.226 53.6472H232.23Z" fill="white"/>
<path d="M132.04 63.2509C128.734 47.0618 122.106 18.2182 117.316 1.84364C117.048 0.920003 117.742 0 118.712 0L126.041 0C132.76 0 138.627 4.57093 139.979 11.0873C142.382 22.6618 143.881 32.4545 145.798 42.9964C153.987 25.0291 156.548 17.9491 162.132 7.36001C164.55 2.77092 169.413 0 174.641 0L185.02 0C186.1 0 186.802 1.12728 186.313 2.08364L154.542 64.0472C153.98 65.142 152.973 65.9382 151.746 66.1235C149.987 66.3853 147.018 66.6981 142.852 66.6981C139.329 66.6981 136.779 66.4727 135.101 66.2473C133.513 66.0328 132.356 64.8074 132.037 63.2509H132.04Z" fill="white"/>
<path d="M137.022 64.5017C136.199 66.589 133.98 66.0838 133.179 65.3273C132.61 64.7928 132.209 64.0655 132.044 63.2509C128.738 47.058 122.11 18.2109 117.316 1.84C117.047 0.919999 117.746 0 118.715 0L126.166 0C132.871 0 138.649 4.66908 139.998 11.1709C142.389 22.7091 143.884 32.48 145.802 42.9964L137.022 64.498V64.5017Z" fill="white"/>
<path d="M137.022 64.5017C136.199 66.589 133.98 66.0838 133.179 65.3273C132.61 64.7928 132.209 64.0655 132.044 63.2509C128.738 47.058 122.11 18.2109 117.316 1.84C117.047 0.919999 117.746 0 118.715 0L126.166 0C132.871 0 138.649 4.66908 139.998 11.1709C142.389 22.7091 143.884 32.48 145.802 42.9964L137.022 64.498V64.5017Z" fill="url(#paint0_linear_11315_4549)"/>
<path d="M94.4274 13.32C86.448 13.32 81.9956 21.2618 80.2209 27.9782C85.5188 27.1564 91.496 26.3454 96.2279 23.6436C98.3732 22.3527 99.8281 20.4691 99.8281 17.9091C99.8281 16.8037 99.3981 15.7636 98.5421 14.7854C97.6862 13.8073 96.3123 13.32 94.4274 13.32ZM115.512 53.6472C116.048 54.2983 116.096 55.2255 115.581 55.8946C108.686 64.8873 96.2279 68 87.0361 68C79.8021 68 71.9109 65.52 66.7859 60.3527C61.5508 54.8801 59.3281 47.4473 59.3281 40.0217C59.3281 33.1855 60.842 26.4037 63.8911 20.2655C66.808 14.4836 71.1431 9.30546 76.5546 5.67273C82.1645 1.96364 88.8433 0 95.5812 0C101.463 0 107.554 1.60727 112.036 5.54547C115.416 8.43999 117.822 12.64 117.822 17.1455C117.822 20.1636 117.223 22.9237 116.022 25.4291C114.821 27.8946 112.723 30.1018 109.722 32.0582C106.764 34.0109 102.76 35.6691 97.7011 37.0291C92.6864 38.3891 86.3673 39.4509 78.7369 40.2145C77.9067 47.4473 81.7274 53.2144 90.1805 53.2144C95.199 53.2144 98.6194 51.6837 101.669 49.469C105.221 46.8908 110.115 47.0764 112.892 50.4618L115.508 53.6472H115.512Z" fill="white"/>
<path d="M15.3294 63.2509C12.023 47.0618 5.39554 18.2182 0.604929 1.84364C0.336743 0.920003 1.03109 0 2.00097 0L9.33016 0C16.0495 0 21.9165 4.57093 23.2685 11.0873C25.6711 22.6618 27.17 32.4545 29.0877 42.9964C37.2765 25.0291 39.8372 17.9491 45.4214 7.36001C47.8387 2.77092 52.7028 0 57.9305 0L68.3089 0C69.3891 0 70.0907 1.12728 69.602 2.08364L37.8313 64.0472C37.2694 65.142 36.2625 65.9382 35.0355 66.1235C33.2759 66.3853 30.3074 66.6981 26.1414 66.6981C22.6182 66.6981 20.0686 66.4727 18.3897 66.2473C16.8026 66.0328 15.6454 64.8074 15.3258 63.2509H15.3294Z" fill="white"/>
<path d="M20.303 64.5017C19.4801 66.589 17.2611 66.0838 16.4603 65.3273C15.8908 64.7928 15.4904 64.0655 15.325 63.2509C12.0187 47.058 5.39117 18.2109 0.596903 1.84C0.328717 0.919999 1.02673 0 1.99661 0L9.44704 0C16.1517 0 21.9305 4.66908 23.2788 11.1709C25.6704 22.7091 27.1657 32.48 29.0834 42.9964L20.303 64.498V64.5017Z" fill="white"/>
<path d="M20.303 64.5017C19.4801 66.589 17.2611 66.0838 16.4603 65.3273C15.8908 64.7928 15.4904 64.0655 15.325 63.2509C12.0187 47.058 5.39117 18.2109 0.596903 1.84C0.328717 0.919999 1.02673 0 1.99661 0L9.44704 0C16.1517 0 21.9305 4.66908 23.2788 11.1709C25.6704 22.7091 27.1657 32.48 29.0834 42.9964L20.303 64.498V64.5017Z" fill="url(#paint1_linear_11315_4549)"/>
</g>
<defs>
<linearGradient id="paint0_linear_11315_4549" x1="127.422" y1="1.18182" x2="139.593" y2="54.5963" gradientUnits="userSpaceOnUse">
<stop stop-color="#485568" stop-opacity="0"/>
<stop offset="1" stop-color="#485568" stop-opacity="0.2"/>
</linearGradient>
<linearGradient id="paint1_linear_11315_4549" x1="10.7034" y1="1.18182" x2="22.8744" y2="54.5963" gradientUnits="userSpaceOnUse">
<stop stop-color="#485568" stop-opacity="0"/>
<stop offset="1" stop-color="#485568" stop-opacity="0.2"/>
</linearGradient>
<clipPath id="clip0_11315_4549">
<rect width="234" height="68" fill="white" transform="translate(0.539062)"/>
</clipPath>
</defs>
</svg>
