<svg width="162" height="69" viewBox="0 0 162 69" fill="none" xmlns="http://www.w3.org/2000/svg">
<g clip-path="url(#clip0_11315_4487)">
<path d="M139.189 29.7352C136.49 30.3595 129.361 30.7063 129.361 30.7063L128.485 33.5273C128.485 33.5273 132.014 33.2267 134.598 33.481C134.598 33.481 135.429 33.4117 135.521 34.4059C135.567 35.4233 135.452 36.487 135.452 36.487C135.452 36.487 135.383 37.1113 134.529 37.2731C133.537 37.435 126.847 37.7356 126.847 37.7356L125.763 41.3889C125.763 41.3889 125.37 42.2213 126.27 41.9901C127.101 41.7589 134.114 40.4178 135.037 40.6028C136.006 40.834 137.113 42.1751 136.79 43.3775C136.421 44.8342 129.408 49.3199 125.163 49.0194C125.163 49.0194 122.925 49.1581 121.056 46.129C119.257 43.2387 121.679 37.8049 121.679 37.8049C121.679 37.8049 120.595 35.2615 121.402 34.3366C121.402 34.3366 121.864 33.9435 123.248 33.8279L124.978 30.267C124.978 30.267 123.017 30.3826 121.864 28.949C120.803 27.5617 120.71 26.9605 121.541 26.5905C122.417 26.1281 130.538 24.6714 136.121 24.8564C136.121 24.8564 138.082 24.6251 139.812 28.0241C139.812 28.0241 140.596 29.4115 139.212 29.7352M118.15 43.4237C117.457 45.1117 115.543 46.8921 113.236 45.8053C110.883 44.6954 107.168 37.1113 107.168 37.1113C107.168 37.1113 105.784 34.2903 105.507 34.3828C105.507 34.3828 105.207 33.8279 105.046 36.9263C104.815 40.0016 105.092 45.9903 103.823 46.9383C102.67 47.8632 101.286 47.4701 100.501 46.3834C99.8552 45.2966 99.5783 42.6838 99.9475 38.1287C100.363 33.5735 101.401 28.7178 102.716 27.2149C104.1 25.6888 105.207 26.7986 105.623 27.2149C105.623 27.2149 107.399 28.8334 110.398 33.6198L110.906 34.4984C110.906 34.4984 113.628 39.0536 113.905 39.0304C113.905 39.0304 114.135 39.2617 114.32 39.0767C114.597 39.0073 114.505 37.5275 114.505 37.5275C114.505 37.5275 113.997 32.6024 111.459 24.2783C111.459 24.2783 111.09 23.2147 111.344 22.1973C111.575 21.2724 112.567 21.7348 112.567 21.7348C112.567 21.7348 116.396 23.5846 118.265 29.8277C120.11 36.0708 118.865 41.7358 118.173 43.4237M99.3707 27.3998C99.0016 28.0473 98.8401 28.949 97.2483 29.2034C97.2483 29.2034 81.7915 30.2901 81.0302 31.3769C81.0302 31.3769 80.5227 32.0243 81.3532 32.1862C82.2299 32.3712 85.7365 32.8336 87.3975 32.9261C89.1969 32.9261 95.2412 32.9723 97.4559 35.7008C97.4559 35.7008 98.7248 36.9957 98.6786 39.9322C98.6325 42.9381 98.1019 44.0018 96.9253 45.0885C95.7026 46.1059 85.2289 50.8229 78.4695 43.6087C78.4695 43.6087 75.3781 40.1403 79.5538 37.5044C79.5538 37.5044 82.5528 35.6546 90.2351 37.8049C90.2351 37.8049 92.5421 38.6374 92.4498 39.4929C92.3114 40.4178 90.535 41.3427 87.9512 41.2964C85.4596 41.2271 83.614 40.0247 83.9832 40.2328C84.3292 40.3484 81.284 38.753 80.3381 39.8397C79.4153 40.8571 79.646 41.4583 80.5688 42.0826C82.8758 43.4237 91.9422 42.9381 94.6414 39.9091C94.6414 39.9091 95.7257 38.6836 94.0877 37.6893C92.4728 36.7644 87.7666 36.1864 85.9441 36.117C84.2139 36.0245 77.7312 36.117 76.7623 34.4291C76.7623 34.4291 75.8395 33.2267 76.8546 29.9433C77.9158 26.4749 85.4596 25.1338 88.7355 24.8564C88.7355 24.8564 97.7328 24.4864 99.4169 26.3362C99.4169 26.3362 99.6476 26.7524 99.3707 27.3767M73.8555 47.7245C72.7712 48.5338 70.4643 48.1869 69.7952 47.262C69.1493 46.4528 68.9186 43.2619 69.0339 38.2443C69.1954 33.1111 69.2646 26.8218 70.4181 25.8044C71.5716 24.8101 72.2637 25.6888 72.7251 26.3593C73.1865 27.053 73.7863 27.816 73.8786 29.4115C74.017 31.0301 74.4092 39.3542 74.4092 39.3542C74.4092 39.3542 74.9167 46.9383 73.8786 47.7245M76.1625 20.6712C72.9789 21.7579 70.8103 21.4111 68.9647 20.6018C68.1573 22.0585 67.6728 22.4979 67.073 22.5904C66.1502 22.6828 65.3428 21.203 65.2274 20.7406C65.0429 20.3937 64.6045 19.7694 65.1351 18.3589C63.3357 16.7404 63.1973 14.5669 63.5203 13.1101C63.9355 11.3991 66.9807 4.97103 76.2086 4.20799C76.2086 4.20799 80.7303 3.88427 81.5147 6.28901H81.6531C81.6531 6.28901 86.0364 6.28901 85.9441 10.2198C85.9441 14.1507 81.0994 19.0526 76.1625 20.7406M80.2689 9.47991C77.3621 9.94236 72.8866 13.8269 70.7411 17.041C74.0401 17.6421 79.8075 17.4109 82.3913 12.1852C82.3913 12.1852 83.614 8.90185 80.2689 9.47991ZM67.5113 12.0234C66.5885 13.5263 66.5424 14.4281 66.9807 15.0293C68.065 13.4107 69.9798 10.8673 72.8635 8.87873C70.6488 9.10995 68.7802 10.0349 67.5113 12.0234ZM146.11 47.5626C143.988 52.7883 142.188 58.0834 141.15 66.0144C141.15 66.0144 140.919 67.5636 139.651 67.0549C138.382 66.5924 136.305 64.5114 135.844 61.5749C135.383 57.7365 137.09 51.2622 140.573 43.8168C139.558 42.1982 138.843 39.7935 139.42 36.4176C139.42 36.4176 140.343 30.1745 146.572 24.5326C146.572 24.5326 147.31 23.9083 147.725 24.1164C148.233 24.3477 148.025 26.3362 147.61 27.3536C147.241 28.3247 144.472 33.1342 144.472 33.1342C144.472 33.1342 142.742 36.4176 143.226 38.9842C146.502 33.9435 153.954 23.7234 158.568 26.9605C161.498 29.0415 161.498 35.747 159.306 39.6316C157.576 42.7069 152.685 49.0656 146.156 47.5858M155.753 31.8625C154.046 33.7123 151.001 37.2269 148.602 41.9901C151.139 41.7126 153.608 40.3022 154.369 39.5854C155.592 38.4986 158.406 35.5621 157.968 31.6775C157.968 31.6775 157.691 29.6427 155.753 31.8625ZM52.4006 50.2911C44.2339 52.7883 36.5286 51.6322 32.3299 50.5223C32.2145 52.2334 32.03 52.9502 31.7531 53.2276C31.4302 53.5976 28.7541 55.1237 27.2776 52.9502C26.6317 51.9097 26.3087 50.0367 26.1241 48.3257C16.6655 44.0249 12.2822 37.6893 12.1438 37.4581C11.9131 37.2269 9.76763 34.984 11.9131 32.2093C13.9202 29.7121 20.5643 27.1917 26.5163 26.1975C26.747 21.1105 27.3007 17.1797 28.0158 15.4455C28.8694 13.3645 29.9537 15.2143 30.9226 16.6016C31.707 17.6421 32.1915 22.1048 32.2376 25.6656C36.1133 25.4807 38.4665 25.7581 42.7805 26.5905C48.4557 27.5617 52.2391 30.4751 51.9392 33.7585C51.6624 36.9957 48.7094 38.3368 47.556 38.4293C46.4025 38.5217 44.5569 37.6662 44.5569 37.6662C43.265 37.065 44.4415 36.5101 45.9411 35.8627C47.6021 35.0534 47.233 34.2441 47.233 34.2441C46.6332 32.3943 39.2739 31.1688 31.9608 31.1688C31.9608 35.2152 32.1223 41.9207 32.2376 45.8284C37.3591 46.7996 41.1887 46.5915 41.1887 46.5915C41.1887 46.5915 59.8752 46.0597 60.4058 34.1054C60.9826 22.1279 41.7193 10.6592 27.5314 7.05205C13.3665 3.32933 5.33823 5.9653 4.64614 6.31213C3.88484 6.68209 4.57693 6.82083 4.57693 6.82083C4.57693 6.82083 5.33823 6.93644 6.72242 7.39889C8.10661 7.86134 6.99926 8.55501 6.99926 8.55501C4.57693 9.38742 1.87776 8.90185 1.34716 7.79197C0.816553 6.70522 1.6932 5.71095 2.73135 4.25423C3.70028 2.75127 4.80763 2.79752 4.80763 2.79752C22.3407 -3.32994 43.7494 7.65324 43.7494 7.65324C63.774 17.7809 67.1884 29.689 66.8192 34.3135C66.4963 38.8686 64.743 46.5684 52.4006 50.3142M13.8741 33.7585C11.8901 34.6834 13.2742 36.1633 13.2742 36.1633C17.0115 40.1634 21.5794 42.6838 25.9626 44.2561C26.4702 37.3194 26.424 34.8453 26.424 31.3538C19.6415 31.8162 15.7196 32.9261 13.8741 33.7585Z" fill="white"/>
</g>
<defs>
<clipPath id="clip0_11315_4487">
<rect width="161.686" height="68" fill="white" transform="translate(0.257812 0.078125)"/>
</clipPath>
</defs>
</svg>
