<svg width="228" height="68" viewBox="0 0 228 68" fill="none" xmlns="http://www.w3.org/2000/svg">
<path d="M58.3398 0V68H0V0H58.3398ZM57.8474 0.492474H0.530363V67.5075H57.8474V0.492474ZM56.8624 1.43955V66.5226H1.51532V1.43955H56.8624ZM56.0669 2.2351H2.31086V65.727H56.0669V2.2351Z" fill="white"/>
<path d="M50.5003 33.7537C51.0307 33.7537 51.258 33.8673 51.258 34.1325C51.258 34.3219 51.0686 34.4356 50.8791 34.4356C50.5382 34.4356 50.2351 34.4735 49.6669 34.5871C48.3789 34.8523 47.9621 35.6857 47.8864 37.3905C47.8106 38.7542 47.8106 40.0423 47.7727 41.747V48.0735C47.7727 50.3086 47.7348 50.3843 47.1287 50.7253C44.0602 52.3921 39.7037 52.9604 36.9003 52.9604C35.044 52.9604 32.3543 52.8467 29.4752 52.0891C30.3087 51.5587 31.1042 50.9905 31.7861 50.3086C31.8619 50.2328 31.9376 50.157 32.0134 50.0813C33.7181 50.6116 35.4608 50.8389 37.2034 50.8389C38.946 50.8389 41.4463 50.5359 42.6964 49.8161C43.3404 49.4751 43.6435 48.9448 43.6435 48.0735V39.6634C43.6435 35.6478 43.4162 35.1175 41.4842 34.5871C41.1053 34.4735 40.2719 34.4356 39.8552 34.4356C39.6658 34.4356 39.4764 34.3219 39.4764 34.1325C39.4764 33.8295 39.7036 33.7537 40.234 33.7537C42.3555 33.7537 45.2725 33.9052 45.6513 33.9052H45.6892C46.0301 33.9052 49.0608 33.7537 50.5003 33.7537ZM21.4062 30.2685L25.1566 31.4049C25.8385 31.5944 26.6719 31.8974 27.6947 32.2384C28.7176 32.5793 29.7025 33.0718 30.6875 33.7537C31.6725 34.4356 32.468 35.3448 33.1878 36.4434C33.8697 37.5799 34.2106 38.9815 34.2106 40.7242C34.2106 42.3152 33.9076 43.8306 33.3014 45.2701C33.2257 45.4595 33.112 45.649 33.0362 45.8384C32.6195 46.6339 32.127 47.3916 31.5588 48.1113C31.3694 48.3386 31.1421 48.5659 30.9527 48.7932C30.839 48.9069 30.7633 48.9827 30.6496 49.0963C30.536 49.21 30.4223 49.3236 30.2708 49.4373C29.3995 50.1949 28.3766 50.8389 27.2401 51.3693C26.975 51.4829 26.6719 51.6345 26.4067 51.7481C26.3309 51.786 26.2173 51.8239 26.1036 51.8618C25.6869 52.0133 25.3081 52.1269 24.8535 52.2406C24.5504 52.3164 24.2095 52.3921 23.8686 52.4679C23.1488 52.5815 22.3911 52.6573 21.6713 52.7331C20.1939 52.8846 18.6407 52.9225 17.0875 52.9225C13.7159 52.9225 10.458 52.5815 7.42733 51.9754C7.38944 51.9754 7.38945 51.9754 7.35156 51.9754V41.0272H7.91981C7.99557 41.3682 8.07134 41.7091 8.14711 42.0501C8.48805 43.4517 8.90477 44.664 9.43513 45.649C10.0413 46.8991 10.7231 47.9598 11.4808 48.7554C12.2385 49.5509 12.9961 50.1949 13.7917 50.6495C14.5872 51.1041 15.4206 51.4072 16.2541 51.6345C17.0875 51.8239 17.883 51.9754 18.6407 51.9754C19.3984 52.0133 20.1181 52.0133 20.7621 52.0133C21.8986 52.0133 22.9215 51.8996 23.7928 51.7102C24.2095 51.5966 24.6262 51.4829 24.9672 51.3693C25.0808 51.3314 25.1945 51.2556 25.346 51.2177C25.5733 51.1041 25.8006 50.9905 25.99 50.8768C26.8992 50.3843 27.619 49.8161 28.1872 49.1342C28.3387 48.9827 28.4524 48.7932 28.6039 48.6038C28.7933 48.3765 28.9449 48.1113 29.0585 47.884C29.0585 47.884 29.0964 47.8462 29.0964 47.8083C29.2101 47.581 29.3237 47.3158 29.4374 47.0885C29.5131 46.8612 29.5889 46.6339 29.6647 46.4066C29.9298 45.4217 30.0814 44.5503 30.0814 43.7169C30.0814 42.5425 29.8541 41.5197 29.3995 40.6484C28.9449 39.815 28.3766 39.0952 27.6569 38.4891C26.9371 37.8829 26.1794 37.4283 25.346 37.0495C24.5126 36.6707 23.717 36.4055 22.9972 36.1782L21.7092 35.7994C21.444 34.5871 21.2925 33.2612 21.2925 31.8217C21.3683 31.3292 21.3683 30.7988 21.4062 30.2685ZM22.8078 17.7671C22.8836 17.8049 22.9972 17.8428 23.073 17.8807C23.717 18.1838 24.2853 18.5247 24.8156 18.9793C24.6641 19.093 24.5126 19.2066 24.361 19.3203C22.2396 21.0629 20.5727 24.0556 19.9287 27.9576C19.8908 28.2606 19.853 28.5258 19.8151 28.8289C19.7772 29.132 19.7393 29.435 19.7014 29.7381C19.6257 30.42 19.6257 31.1398 19.6257 31.8974C19.6257 33.1097 19.7393 34.2462 19.8908 35.3069C19.9287 35.6478 20.0045 35.9509 20.0803 36.2918C20.156 36.6328 20.2318 36.9737 20.3075 37.2768C21.4062 41.4439 23.4897 44.3988 24.702 45.6111C25.4975 46.4066 26.2931 47.0885 27.1265 47.6567C27.0507 47.7704 26.9371 47.9219 26.8234 48.0356C26.2931 48.6417 25.5354 49.21 24.6262 49.6267C24.4368 49.7024 24.2474 49.7782 24.058 49.854C23.073 49.2478 22.0881 48.5659 21.1789 47.7325C18.6028 45.4217 16.1404 41.0651 15.5722 35.8751C15.5343 35.5721 15.4964 35.2311 15.4964 34.8902C15.4585 34.5871 15.4585 34.2462 15.4585 33.9431C15.4585 33.8295 15.4585 33.7537 15.4585 33.64C15.4585 31.7838 15.6479 30.079 16.0268 28.4879C16.1025 28.1849 16.1783 27.9197 16.2541 27.6166C16.3298 27.3136 16.4056 27.0484 16.5192 26.7453C17.7315 22.7297 20.156 19.6991 22.8078 17.7671ZM22.6184 14.0924C23.6034 14.0924 24.5883 14.1682 25.5733 14.3197C26.1037 14.3955 26.634 14.5091 27.1644 14.6607C27.6569 14.7743 28.1872 14.9258 28.6797 15.1152C29.2101 15.3047 29.7404 15.4941 30.2708 15.7593C30.3465 15.7971 30.4223 15.835 30.4981 15.8729V23.7526C30.4981 23.7905 30.4602 23.8283 30.4602 23.9041C30.4223 23.9799 30.3465 24.0178 30.3465 24.0935C30.2329 24.3208 29.7404 23.942 29.6647 23.8283C29.6647 23.8283 29.6647 23.8283 29.6268 23.7905V23.7526C29.5889 23.6768 29.5889 23.601 29.5131 23.5632C29.3237 22.8434 29.0585 22.1615 28.7555 21.4796C28.4145 20.7219 27.9978 20.0022 27.5053 19.3581C27.3159 19.1308 27.1265 18.9035 26.9371 18.6762C26.8613 18.6005 26.8234 18.5626 26.7477 18.4868C26.5961 18.3353 26.4825 18.1838 26.3309 18.0701C25.8006 17.5776 25.2323 17.1609 24.5883 16.7821C24.361 16.6306 24.0959 16.5169 23.8307 16.4033C23.7549 16.3654 23.717 16.3275 23.6413 16.3275C23.3003 16.176 22.9594 16.0623 22.5805 15.9487C21.7471 15.7214 20.8379 15.6077 19.853 15.6077C19.0195 15.6077 18.0725 15.7214 17.0496 15.9487C16.0268 16.176 15.0797 16.5548 14.2084 17.0852C13.9053 17.2746 13.6401 17.464 13.4128 17.6534C12.8825 18.108 12.4279 18.6005 12.0491 19.2066C11.4808 20.0779 11.1777 21.2144 11.1777 22.5782C11.1777 23.6768 11.405 24.586 11.8596 25.3437C12.3142 26.1013 12.9204 26.7453 13.6401 27.2757C13.8674 27.4272 14.0947 27.6166 14.3599 27.7682C13.9053 29.5108 13.678 31.3671 13.6401 33.2612C12.39 32.6551 11.3293 31.9353 10.5337 31.1776C9.0563 29.776 8.33652 27.9197 8.33652 25.571C8.33652 24.0556 8.6017 22.6161 9.16995 21.3281C9.73819 20.04 10.5337 18.9035 11.5566 17.9565L11.7081 17.8428C11.8975 17.6913 12.0869 17.5398 12.2764 17.3882C13.2613 16.7063 14.3599 16.1381 15.4964 15.6456C17.6179 14.5849 20.0803 14.0924 22.6184 14.0924ZM36.2563 14.2439C39.2869 14.2439 42.6964 14.8879 43.6435 15.0774C44.0981 15.191 44.7042 15.3047 45.3103 15.3804C45.3482 15.3804 45.3482 15.3804 45.3861 15.4183C45.9543 15.4941 46.4847 15.7593 47.053 15.835C47.1287 15.835 47.1666 15.8729 47.2424 15.9108H47.2803C47.3181 15.9108 47.356 15.9487 47.356 15.9487C47.5833 16.0623 47.8106 16.176 48.0379 16.2517C48 17.0094 47.697 18.6005 47.697 23.0328C47.697 23.8283 47.5833 24.0556 47.2803 24.0556C47.053 24.0556 46.9772 23.7526 46.9393 23.298C46.9014 22.6161 46.6362 21.2144 45.9165 20.04C44.7042 18.1459 40.8023 16.0244 34.5894 16.0244C33.8318 16.0244 33.0741 16.0244 32.2407 16.1002V14.6607V14.3955C33.5666 14.2439 34.4758 14.2061 35.5744 14.2061L36.2563 14.2439Z" fill="white"/>
<path d="M111.644 55.9532C111.909 55.9532 112.137 55.9911 112.326 56.0668C112.553 56.1426 112.705 56.2183 112.856 56.3699L112.667 56.7108C112.629 56.7487 112.629 56.7866 112.591 56.7866C112.553 56.7866 112.515 56.8245 112.478 56.8245C112.44 56.8245 112.402 56.8245 112.364 56.7866C112.326 56.7487 112.25 56.7108 112.175 56.7108C112.099 56.7108 112.023 56.6351 111.947 56.6351C111.871 56.5972 111.758 56.5972 111.644 56.5972C111.531 56.5972 111.455 56.5972 111.341 56.6351C111.265 56.6729 111.19 56.7108 111.152 56.7487C111.114 56.7866 111.038 56.8245 111.038 56.9002C111 56.976 111 57.0139 111 57.0897C111 57.1654 111.038 57.2412 111.076 57.317C111.114 57.3927 111.19 57.4306 111.303 57.4685C111.379 57.5064 111.493 57.5443 111.606 57.5821C111.72 57.62 111.834 57.6579 111.985 57.6958C112.099 57.7337 112.212 57.7716 112.364 57.8094C112.478 57.8473 112.591 57.9231 112.667 57.9989C112.743 58.0746 112.819 58.1883 112.894 58.264C112.932 58.3777 112.97 58.5292 112.97 58.6807C112.97 58.8702 112.932 59.0217 112.856 59.1732C112.781 59.3248 112.705 59.4384 112.553 59.5521C112.44 59.6657 112.288 59.7415 112.099 59.8172C111.909 59.893 111.72 59.9309 111.455 59.9309C111.303 59.9309 111.19 59.9309 111.038 59.893C110.924 59.8551 110.773 59.8172 110.659 59.7794C110.546 59.7415 110.432 59.6657 110.318 59.6278C110.205 59.5521 110.129 59.5142 110.053 59.4384L110.28 59.0975C110.318 59.0596 110.318 59.0596 110.356 59.0217C110.394 59.0217 110.432 58.9838 110.47 58.9838C110.508 58.9838 110.583 59.0217 110.621 59.0217C110.697 59.0596 110.735 59.0975 110.811 59.1353C110.886 59.1732 110.962 59.2111 111.076 59.249C111.19 59.2869 111.303 59.2869 111.455 59.2869C111.682 59.2869 111.871 59.249 111.985 59.1353C112.099 59.0217 112.175 58.908 112.175 58.7186C112.175 58.605 112.137 58.5292 112.099 58.4534C112.061 58.3777 111.985 58.3398 111.871 58.3019C111.796 58.264 111.682 58.2262 111.568 58.1883C111.455 58.1504 111.341 58.1125 111.19 58.0746C111.076 58.0367 110.962 57.9989 110.811 57.961C110.697 57.9231 110.583 57.8473 110.508 57.7716C110.432 57.6958 110.356 57.5821 110.28 57.4685C110.242 57.3548 110.205 57.2033 110.205 57.0139C110.205 56.8624 110.242 56.7487 110.28 56.5972C110.356 56.4456 110.432 56.332 110.546 56.2562C110.659 56.1426 110.811 56.0668 111 55.9911C111.227 55.9532 111.455 55.9532 111.644 55.9532ZM144.754 55.9532C145.019 55.9532 145.246 55.9911 145.436 56.0668C145.663 56.1426 145.815 56.2183 145.966 56.3699L145.777 56.7108C145.739 56.7487 145.739 56.7866 145.701 56.7866C145.663 56.7866 145.625 56.8245 145.587 56.8245C145.549 56.8245 145.512 56.8245 145.474 56.7866C145.436 56.7487 145.36 56.7108 145.284 56.7108C145.209 56.6729 145.133 56.6351 145.057 56.6351C144.981 56.5972 144.868 56.5972 144.754 56.5972C144.64 56.5972 144.564 56.5972 144.451 56.6351C144.375 56.6729 144.299 56.7108 144.261 56.7487C144.224 56.7866 144.148 56.8245 144.148 56.9002C144.11 56.976 144.11 57.0139 144.11 57.0897C144.11 57.1654 144.148 57.2412 144.186 57.317C144.224 57.3927 144.299 57.4306 144.413 57.4685C144.489 57.5064 144.602 57.5443 144.716 57.5821C144.83 57.62 144.943 57.6579 145.095 57.6958C145.209 57.7337 145.322 57.7716 145.474 57.8094C145.587 57.8473 145.701 57.9231 145.777 57.9989C145.853 58.0746 145.928 58.1883 146.004 58.264C146.042 58.3777 146.08 58.5292 146.08 58.6807C146.08 58.8702 146.042 59.0217 145.966 59.1732C145.89 59.3248 145.815 59.4384 145.663 59.5521C145.549 59.6657 145.398 59.7415 145.209 59.8172C145.019 59.893 144.83 59.9309 144.564 59.9309C144.413 59.9309 144.299 59.9309 144.148 59.893C144.034 59.8551 143.883 59.8172 143.769 59.7794C143.655 59.7415 143.542 59.6657 143.428 59.6278C143.314 59.5521 143.239 59.5142 143.163 59.4384L143.39 59.0975C143.428 59.0596 143.428 59.0596 143.466 59.0217C143.504 59.0217 143.542 58.9838 143.58 58.9838C143.617 58.9838 143.693 59.0217 143.731 59.0217C143.807 59.0596 143.845 59.0975 143.92 59.1353C143.996 59.1732 144.072 59.2111 144.186 59.249C144.299 59.2869 144.413 59.2869 144.564 59.2869C144.792 59.2869 144.981 59.249 145.095 59.1353C145.209 59.0217 145.284 58.908 145.284 58.7186C145.284 58.605 145.246 58.5292 145.209 58.4534C145.171 58.3777 145.095 58.3398 144.981 58.3019C144.905 58.264 144.792 58.2262 144.678 58.1883C144.564 58.1504 144.451 58.1125 144.299 58.0746C144.186 58.0367 144.072 57.9989 143.92 57.961C143.807 57.9231 143.693 57.8473 143.617 57.7716C143.542 57.6958 143.466 57.5821 143.39 57.4685C143.352 57.3548 143.314 57.2033 143.314 57.0139C143.314 56.8624 143.352 56.7487 143.39 56.5972C143.466 56.4456 143.542 56.332 143.655 56.2562C143.769 56.1426 143.92 56.0668 144.11 55.9911C144.337 55.9532 144.527 55.9532 144.754 55.9532ZM191.274 55.9911L190.024 57.3927C189.986 57.4306 189.986 57.4685 189.948 57.4685C189.91 57.5064 189.91 57.5064 189.873 57.5443C189.948 57.5064 190.062 57.4685 190.138 57.4685C190.251 57.4306 190.327 57.4306 190.441 57.4306C190.592 57.4306 190.744 57.4685 190.895 57.5064C191.047 57.5443 191.198 57.62 191.312 57.7337C191.426 57.8473 191.539 57.961 191.577 58.1125C191.653 58.264 191.691 58.4156 191.691 58.605C191.691 58.7944 191.653 58.9459 191.577 59.0975C191.502 59.249 191.388 59.4005 191.274 59.5142C191.161 59.6278 190.971 59.7415 190.782 59.7794C190.592 59.8551 190.403 59.893 190.176 59.893C189.948 59.893 189.759 59.8551 189.57 59.7794C189.38 59.7036 189.229 59.6278 189.115 59.5142C189.001 59.4005 188.888 59.249 188.812 59.0975C188.736 58.9459 188.698 58.7565 188.698 58.5292C188.698 58.3398 188.736 58.1504 188.812 57.961C188.888 57.7716 189.039 57.5821 189.191 57.3548L190.214 56.1047C190.251 56.0668 190.289 56.0289 190.365 55.9911C190.441 55.9532 190.517 55.9532 190.592 55.9532H191.274V55.9911ZM185.668 55.9911V56.2562C185.668 56.332 185.63 56.4078 185.554 56.4835C185.478 56.5593 185.364 56.5593 185.213 56.5593H184.039L183.887 57.3548C184.076 57.317 184.266 57.317 184.417 57.317C184.645 57.317 184.834 57.3548 185.024 57.3927C185.175 57.4685 185.327 57.5443 185.44 57.6579C185.554 57.7715 185.63 57.8852 185.705 58.0367C185.781 58.1883 185.781 58.3398 185.781 58.4913C185.781 58.6807 185.743 58.8702 185.668 59.0596C185.592 59.2111 185.478 59.3626 185.327 59.4763C185.175 59.5899 185.024 59.7036 184.834 59.7415C184.645 59.8172 184.417 59.8551 184.19 59.8551C184.039 59.8551 183.925 59.8551 183.811 59.8172C183.698 59.7794 183.584 59.7415 183.47 59.7036C183.357 59.6657 183.281 59.6278 183.167 59.5521C183.092 59.5142 183.016 59.4384 182.94 59.3626L183.167 59.0975C183.205 59.0217 183.281 59.0217 183.357 59.0217C183.395 59.0217 183.47 59.0217 183.508 59.0596C183.546 59.0975 183.622 59.1353 183.698 59.1353C183.773 59.1732 183.849 59.2111 183.925 59.2111C184.001 59.249 184.114 59.249 184.266 59.249C184.417 59.249 184.531 59.2111 184.607 59.1732C184.72 59.1353 184.796 59.0975 184.872 59.0217C184.948 58.9459 184.986 58.8702 185.024 58.7565C185.061 58.6429 185.061 58.5671 185.061 58.4534C185.061 58.2261 184.986 58.0746 184.872 57.961C184.72 57.8473 184.531 57.7716 184.266 57.7716C184.076 57.7716 183.849 57.8094 183.66 57.8852L183.205 57.7716L183.546 55.9153H185.668V55.9911ZM178.697 55.9532C178.886 55.9532 179.076 55.9911 179.227 56.0289C179.379 56.0668 179.531 56.1426 179.644 56.2562C179.758 56.332 179.871 56.4456 179.909 56.5972C179.985 56.7108 180.023 56.8624 180.023 57.0139C180.023 57.2033 179.985 57.3927 179.871 57.5443C179.758 57.6958 179.606 57.8094 179.417 57.8852C179.682 57.961 179.871 58.0746 179.985 58.2261C180.099 58.3777 180.175 58.5671 180.175 58.7944C180.175 58.9459 180.137 59.1353 180.061 59.249C179.985 59.4005 179.871 59.5142 179.758 59.5899C179.644 59.7036 179.455 59.7794 179.303 59.8172C179.114 59.8551 178.924 59.893 178.697 59.893C178.47 59.893 178.28 59.8551 178.091 59.8172C177.902 59.7794 177.75 59.7036 177.636 59.5899C177.523 59.4763 177.409 59.3626 177.333 59.249C177.258 59.0975 177.22 58.9459 177.22 58.7944C177.22 58.5671 177.295 58.3777 177.409 58.2261C177.523 58.0746 177.712 57.961 177.977 57.8852C177.75 57.8094 177.598 57.6958 177.523 57.5443C177.409 57.3927 177.371 57.2412 177.371 57.0139C177.371 56.8624 177.409 56.7487 177.485 56.5972C177.561 56.4835 177.636 56.3699 177.75 56.2562C177.864 56.1805 178.015 56.1047 178.167 56.0289C178.318 55.9532 178.508 55.9532 178.697 55.9532ZM129.298 55.9911C129.563 55.9911 129.828 56.0289 130.017 56.0668C130.207 56.1047 130.396 56.1805 130.51 56.2562C130.624 56.332 130.737 56.4456 130.775 56.5593C130.851 56.6729 130.851 56.8245 130.851 56.976C130.851 57.0518 130.851 57.1654 130.813 57.2412C130.775 57.317 130.737 57.3927 130.661 57.4685C130.586 57.5443 130.51 57.62 130.434 57.6579C130.32 57.7337 130.207 57.7716 130.093 57.8094C130.661 57.9231 130.964 58.2262 130.964 58.6807C130.964 58.8323 130.927 58.9838 130.851 59.1353C130.775 59.2869 130.699 59.4005 130.548 59.4763C130.434 59.5899 130.245 59.6657 130.055 59.7036C129.866 59.7415 129.639 59.7794 129.411 59.7794H127.782V55.9153H129.298V55.9911ZM149.792 55.9911V57.6579H151.8V55.9911H152.596V59.8551H151.8V58.1883H149.792V59.8551H148.997V55.9911H149.792ZM158.468 55.9911V56.5593H156.573V57.62H158.051V58.1883H156.573V59.2869H158.468V59.8551H155.778V55.9911H158.468ZM173.621 55.9911V59.3626H174.378V59.8551H172.03V59.3626H172.901V57.1275C172.901 57.0518 172.901 56.9381 172.901 56.8624L172.295 57.317C172.257 57.3548 172.257 57.3548 172.219 57.3548C172.181 57.3548 172.181 57.3548 172.143 57.3548C172.105 57.3548 172.068 57.3548 172.03 57.317C171.992 57.317 171.992 57.2791 171.954 57.2791L171.727 56.976L173.015 55.9911H173.621ZM123.388 55.9911L125.055 59.8551H124.449C124.373 59.8551 124.335 59.8551 124.297 59.8172C124.259 59.7794 124.221 59.7415 124.183 59.7036L123.88 58.908H122.1L121.797 59.7036C121.797 59.7415 121.759 59.7794 121.721 59.8172C121.683 59.8551 121.607 59.8551 121.57 59.8551H120.888L122.554 55.9911H123.388ZM107.401 55.9911V56.5593H105.507V57.62H106.985V58.1883H105.507V59.2869H107.401V59.8551H104.712V55.9911H107.401ZM118.918 55.9911V56.5972H117.63V59.8551H116.834V56.5972H115.546V55.9911H118.918ZM140.246 55.9911V59.8551H139.45V55.9911H140.246ZM163.127 55.9911C163.468 55.9911 163.733 56.0289 163.998 56.1426C164.264 56.2183 164.491 56.3699 164.68 56.5214C164.87 56.6729 165.021 56.9002 165.135 57.1275C165.249 57.3548 165.287 57.62 165.287 57.9231C165.287 58.1883 165.249 58.4535 165.135 58.7186C165.021 58.9459 164.87 59.1732 164.68 59.3248C164.491 59.4763 164.264 59.6278 163.998 59.7036C163.733 59.7794 163.43 59.8551 163.127 59.8551H161.498V55.9911H163.127ZM134.753 55.9911V59.249H136.458V59.8551H133.957V55.9911H134.753ZM178.697 58.1125C178.47 58.1125 178.28 58.1504 178.167 58.264C178.053 58.3777 177.977 58.5292 177.977 58.7565C177.977 58.8323 177.977 58.9459 178.015 59.0217C178.053 59.0975 178.091 59.1732 178.167 59.2111C178.242 59.249 178.318 59.3248 178.394 59.3248C178.47 59.3626 178.583 59.3626 178.697 59.3626C178.811 59.3626 178.924 59.3626 179 59.3248C179.076 59.2869 179.152 59.249 179.227 59.2111C179.303 59.1732 179.341 59.0975 179.379 59.0217C179.417 58.9459 179.417 58.8702 179.417 58.7565C179.417 58.5292 179.341 58.3777 179.227 58.264C179.114 58.1504 178.924 58.1125 178.697 58.1125ZM190.214 57.9231C190.1 57.9231 189.986 57.9231 189.91 57.961C189.835 57.9989 189.721 58.0367 189.683 58.1125C189.607 58.1883 189.57 58.264 189.532 58.3398C189.494 58.4156 189.494 58.5292 189.494 58.605C189.494 58.7186 189.494 58.7944 189.532 58.908C189.57 58.9838 189.607 59.0596 189.683 59.1353C189.759 59.2111 189.835 59.249 189.91 59.2869C189.986 59.3248 190.1 59.3248 190.251 59.3248C190.365 59.3248 190.479 59.3248 190.554 59.2869C190.668 59.249 190.744 59.2111 190.82 59.1353C190.895 59.0596 190.933 58.9838 190.971 58.908C191.009 58.8323 191.047 58.7186 191.047 58.6429C191.047 58.5292 191.047 58.4156 191.009 58.3398C190.971 58.264 190.933 58.1883 190.858 58.1125C190.782 58.0367 190.706 57.9989 190.592 57.961C190.441 57.9231 190.327 57.9231 190.214 57.9231ZM129.411 58.1504H128.616V59.2869H129.411C129.563 59.2869 129.676 59.2869 129.79 59.249C129.904 59.2111 129.98 59.1732 130.017 59.1353C130.093 59.0975 130.131 59.0217 130.131 58.9459C130.169 58.8702 130.169 58.7944 130.169 58.7186C130.169 58.6429 130.169 58.5671 130.131 58.4913C130.093 58.4156 130.055 58.3777 129.98 58.3019C129.904 58.264 129.828 58.2262 129.752 58.1883C129.676 58.1504 129.563 58.1504 129.411 58.1504ZM163.127 56.5593H162.294V59.2869H163.127C163.354 59.2869 163.506 59.249 163.695 59.2111C163.847 59.1353 163.998 59.0596 164.112 58.9459C164.226 58.8323 164.302 58.6807 164.377 58.5292C164.453 58.3777 164.453 58.1883 164.453 57.961C164.453 57.7337 164.415 57.5443 164.377 57.3927C164.302 57.2412 164.226 57.0897 164.112 56.976C163.998 56.8624 163.847 56.7866 163.695 56.7108C163.506 56.5972 163.317 56.5593 163.127 56.5593ZM122.971 56.6351C122.933 56.7108 122.933 56.8245 122.895 56.9002C122.858 56.976 122.858 57.0518 122.82 57.0897L122.289 58.3777H123.653L123.123 57.0897C123.085 57.0139 123.085 56.976 123.047 56.9002C123.009 56.8245 123.009 56.7487 122.971 56.6351ZM129.298 56.5214H128.616V57.62H129.26C129.525 57.62 129.752 57.5821 129.866 57.5064C130.017 57.4306 130.093 57.2791 130.093 57.0897C130.093 56.9002 130.017 56.7487 129.904 56.673C129.752 56.5593 129.563 56.5214 129.298 56.5214ZM178.697 56.4457C178.583 56.4457 178.508 56.4457 178.432 56.4835C178.356 56.5214 178.28 56.5593 178.242 56.5972C178.205 56.6351 178.167 56.7108 178.129 56.7866C178.091 56.8624 178.091 56.9381 178.091 57.0139C178.091 57.0897 178.091 57.1654 178.129 57.2412C178.167 57.317 178.167 57.3927 178.242 57.4306C178.28 57.4685 178.356 57.5443 178.432 57.5821C178.508 57.62 178.621 57.62 178.735 57.62C178.849 57.62 178.962 57.62 179.038 57.5821C179.114 57.5443 179.19 57.5064 179.227 57.4306C179.265 57.3927 179.303 57.317 179.341 57.2412C179.379 57.1654 179.379 57.0897 179.379 57.0139C179.379 56.9381 179.379 56.8624 179.341 56.7866C179.303 56.7108 179.265 56.6729 179.227 56.5972C179.19 56.5593 179.114 56.5214 179.038 56.4835C178.886 56.4457 178.811 56.4457 178.697 56.4457ZM76.6024 30.761C78.2692 30.761 80.1255 31.1019 80.6559 31.2156C81.2241 31.3292 82.1333 31.4429 82.7773 31.4808C83.0425 31.5186 83.0804 31.5944 83.0804 31.708C83.0804 32.0869 82.891 32.8067 82.891 35.4585C82.891 35.8752 82.8531 36.0267 82.6637 36.0267C82.55 36.0267 82.5121 35.8752 82.4742 35.6479C82.4364 35.2691 82.3227 34.5493 81.906 33.9053C81.262 32.9203 79.1026 31.7838 75.6932 31.7838C74.0263 31.7838 72.0564 31.9353 70.0486 33.5264C68.5333 34.7387 67.4347 37.1253 67.4347 40.2317C67.4347 43.9443 69.291 46.634 70.238 47.5431C72.3216 49.5888 74.7082 50.3465 77.1327 50.3465C78.0798 50.3465 79.4436 50.195 80.1255 49.7782C80.4664 49.5888 80.6559 49.2858 80.6559 48.869V44.3988C80.6559 42.2774 80.5422 41.9743 79.4815 41.6713C79.2542 41.6334 78.8375 41.5955 78.5723 41.5955C78.4586 41.5955 78.345 41.5576 78.345 41.444C78.345 41.2924 78.4586 41.2167 78.7617 41.2167C79.9361 41.2167 81.6029 41.2924 81.7545 41.2924C81.8681 41.2924 83.535 41.2167 84.3305 41.2167C84.6336 41.2167 84.7472 41.2546 84.7472 41.444C84.7472 41.5576 84.6336 41.5955 84.5199 41.5955C84.3305 41.5955 84.179 41.6334 83.8759 41.6713C83.1561 41.7849 82.9667 42.2395 82.891 43.1866C82.8531 43.8685 82.8531 44.5125 82.8531 45.308V48.9069C82.8531 50.0813 82.8152 50.1571 82.5121 50.3465C80.8074 51.2557 78.4586 51.5209 76.9054 51.5209C74.8976 51.5209 71.1472 51.2557 68.2302 48.7175C66.6391 47.3158 65.0859 44.5125 65.0859 41.2167C65.0859 37.0117 67.1316 34.0189 69.4804 32.5415C71.9428 30.9504 74.5567 30.761 76.6024 30.761ZM223.248 30.761C224.27 30.761 225.028 30.8746 225.71 31.0262C226.202 31.1398 226.43 31.1398 226.619 31.1398C226.846 31.1398 226.884 31.1777 226.884 31.3292C226.884 31.4429 226.771 32.3142 226.771 34.1326C226.771 34.5493 226.733 34.7387 226.581 34.7387C226.43 34.7387 226.392 34.5872 226.354 34.3977C226.316 34.0947 226.164 33.3749 226.013 33.0718C225.861 32.7688 225.142 31.6702 222.717 31.6702C220.899 31.6702 219.459 32.8066 219.459 34.7387C219.459 36.254 220.141 37.2011 222.679 39.171L223.399 39.7392C226.505 42.2016 227.263 43.8306 227.263 45.9521C227.263 47.0507 226.846 49.0206 225.028 50.3465C223.892 51.142 222.452 51.4451 221.05 51.4451C219.8 51.4451 218.588 51.2557 217.527 50.7253C217.148 50.5359 217.148 50.4222 217.148 49.7404C217.148 48.4144 217.262 47.3537 217.262 46.937C217.3 46.6339 217.338 46.5203 217.489 46.5203C217.641 46.5203 217.679 46.5961 217.679 46.8234C217.679 47.0507 217.679 47.4295 217.754 47.8083C218.133 49.7404 219.876 50.498 221.656 50.498C224.195 50.498 225.445 48.6796 225.445 46.9749C225.445 45.1565 224.687 44.0958 222.414 42.2395L221.24 41.2546C218.436 38.9437 217.792 37.3147 217.792 35.5342C217.792 32.6551 219.876 30.761 223.248 30.761ZM167.294 30.761C173.242 30.761 177.674 34.5114 177.674 40.6484C177.674 46.5582 173.507 51.4451 167.143 51.4451C159.907 51.4451 156.914 45.8384 156.914 41.0651C156.914 36.7844 160.021 30.761 167.294 30.761ZM188.698 30.761C188.925 30.761 189.342 31.3292 189.607 31.5944C189.986 32.049 193.926 36.2919 197.98 40.6484C200.593 43.4518 203.473 46.6718 204.306 47.5431L204.003 34.1326C203.965 32.4278 203.776 31.8217 202.98 31.6323C202.488 31.5186 202.071 31.5186 201.844 31.5186C201.541 31.5186 201.465 31.4429 201.465 31.3292C201.465 31.1777 201.692 31.1398 201.995 31.1398C203.17 31.1398 204.458 31.2156 204.723 31.2156C205.026 31.2156 205.897 31.1398 206.958 31.1398C207.261 31.1398 207.45 31.1777 207.45 31.3292C207.45 31.4429 207.337 31.4807 207.147 31.5186C206.92 31.5565 206.768 31.5565 206.465 31.6323C205.746 31.7838 205.556 32.2005 205.556 34.0189L205.518 49.4373C205.518 51.1799 205.48 51.2936 205.291 51.2936C205.064 51.2936 204.761 50.9905 203.359 49.5888C203.056 49.3236 199.268 45.4596 196.464 42.4289C193.396 39.1331 190.441 35.7994 189.57 34.8523L189.91 47.4674C189.948 49.6267 190.214 50.3086 190.933 50.5359C191.426 50.6495 192.032 50.6874 192.259 50.6874C192.373 50.6874 192.486 50.7253 192.486 50.839C192.486 50.9905 192.335 51.0663 191.994 51.0663C190.554 51.0663 189.532 50.9905 189.229 50.9905H189.191C188.963 50.9905 187.827 51.0663 186.653 51.0663C186.387 51.0663 186.236 51.0284 186.236 50.839C186.236 50.7253 186.312 50.6874 186.463 50.6874C186.69 50.6874 187.145 50.6495 187.562 50.5359C188.206 50.3465 188.357 49.5888 188.357 47.2022V42.0501C188.357 34.0947 188.395 36.9738 188.395 32.0869C188.395 31.0261 188.471 30.761 188.698 30.761ZM140.359 31.1019C144.678 31.1019 145.625 33.7537 145.625 35.0418C145.625 37.2011 144.375 38.4891 143.163 39.7771C145.095 40.3833 147.709 42.2395 147.709 45.3459C147.709 48.1493 145.512 51.1041 140.966 51.1041C140.663 51.1041 139.829 51.0663 139.071 51.0284C138.314 50.9905 137.556 50.9526 137.48 50.9526C136.647 50.9526 135.814 51.0284 134.904 51.0284C134.601 51.0284 134.488 50.9905 134.488 50.839C134.488 50.7632 134.525 50.6495 134.866 50.6495C135.094 50.6495 135.245 50.6117 135.51 50.5738C136.041 50.4601 136.154 49.854 136.268 49.0963C136.382 48.1114 136.382 46.4067 136.382 44.2852V36.6707C136.382 34.322 136.382 33.7158 136.344 33.0339C136.306 32.1248 136.079 31.708 135.207 31.5186C134.98 31.4807 134.563 31.4429 134.45 31.4429C134.222 31.4429 134.109 31.405 134.109 31.2913C134.109 31.1398 134.222 31.064 134.525 31.064C135.7 31.064 137.367 31.1398 137.518 31.1398C138.124 31.1777 139.147 31.1019 140.359 31.1019ZM117.402 31.1019C121.721 31.1019 122.668 33.7537 122.668 35.0418C122.668 37.2011 121.418 38.4891 120.206 39.7771C122.176 40.3833 124.752 42.2395 124.752 45.3459C124.752 48.1493 122.554 51.1041 118.009 51.1041C117.705 51.1041 116.872 51.0663 116.114 51.0284C115.357 50.9905 114.599 50.9526 114.523 50.9526C113.69 50.9526 112.856 51.0284 111.947 51.0284C111.644 51.0284 111.531 50.9905 111.531 50.839C111.531 50.7632 111.568 50.6495 111.909 50.6495C112.137 50.6495 112.288 50.6117 112.553 50.5738C113.084 50.4601 113.197 49.854 113.311 49.0963C113.425 48.1114 113.425 46.4067 113.425 44.2852V36.8601C113.425 34.3599 113.425 33.7158 113.387 33.0339C113.349 32.1248 113.122 31.708 112.25 31.5186C112.023 31.4807 111.606 31.4429 111.493 31.4429C111.265 31.4429 111.152 31.405 111.152 31.2913C111.152 31.1398 111.265 31.064 111.568 31.064C112.743 31.064 114.41 31.1398 114.561 31.1398C115.167 31.1777 116.19 31.1019 117.402 31.1019ZM100.052 31.1019C100.355 31.1019 100.469 31.1398 100.469 31.3292C100.469 31.4429 100.355 31.4808 100.241 31.4808C100.052 31.4808 99.9004 31.5186 99.5974 31.5565C98.8776 31.6702 98.6882 32.1248 98.6124 33.0718C98.5745 33.7158 98.5745 34.322 98.5745 36.5192V44.6261C98.5745 46.5961 98.6124 48.1871 98.6882 49.1342C98.7639 49.8919 98.9155 50.498 99.711 50.5738C100.09 50.6117 100.62 50.6874 100.81 50.6874C101.037 50.6874 101.113 50.7632 101.113 50.839C101.113 50.9526 100.999 51.0663 100.734 51.0663C99.2943 51.0663 97.5896 50.9905 97.4759 50.9905C97.3623 50.9905 95.6954 51.0663 94.8999 51.0663C94.5968 51.0663 94.4832 51.0284 94.4832 50.839C94.4832 50.7632 94.521 50.6874 94.7862 50.6874C94.9377 50.6874 95.2408 50.6496 95.4681 50.6117C95.9985 50.498 96.15 49.8919 96.2637 49.1342C96.3773 48.0735 96.3773 46.1036 96.3773 43.717V37.542C96.3773 34.5114 96.3773 33.8295 96.3394 33.0718C96.3015 32.1626 96.0364 31.708 95.4302 31.5944C95.1272 31.5186 94.7862 31.4808 94.5968 31.4808C94.4832 31.4808 94.3695 31.4429 94.3695 31.3292C94.3695 31.1777 94.4832 31.1019 94.7862 31.1019C95.6196 31.1019 97.1729 31.1777 97.438 31.1777H97.4759C97.5896 31.1777 99.2564 31.1019 100.052 31.1019ZM167.105 31.6323C162.71 31.6323 159.415 34.5493 159.415 40.3075C159.415 46.4445 163.089 50.4223 167.863 50.4223C170.249 50.4223 175.136 49.0585 175.136 41.3682C175.136 35.0417 171.272 31.6323 167.105 31.6323ZM115.698 40.459C115.584 40.459 115.546 40.4969 115.546 40.6484V43.7548C115.546 45.5732 115.546 47.581 115.584 47.8462C115.66 49.1342 115.66 49.5131 116.493 49.8919C117.213 50.2328 118.349 50.2707 118.804 50.2707C120.244 50.2707 122.517 49.5131 122.517 46.5203C122.517 44.9292 121.986 42.6562 119.941 41.2546C119.031 40.6484 118.387 40.5727 117.743 40.4969C117.402 40.459 116.076 40.459 115.698 40.459ZM138.655 40.459C138.541 40.459 138.503 40.4969 138.503 40.6484V43.3381C138.503 45.2702 138.503 47.5431 138.541 47.8841C138.617 49.1721 138.617 49.5509 139.45 49.9298C140.17 50.2707 141.307 50.3086 141.761 50.3086C143.201 50.3086 145.474 49.5509 145.474 46.5582C145.474 44.9671 144.943 42.6941 142.898 41.2924C141.988 40.6863 141.344 40.6106 140.7 40.5348C140.359 40.459 139.071 40.459 138.655 40.459ZM140.094 31.8596C139.791 31.8596 139.261 31.8975 138.844 31.9732C138.617 32.0111 138.541 32.0869 138.541 32.2763V39.3604C138.541 39.5498 138.579 39.5877 138.731 39.6635C138.882 39.7014 139.375 39.7771 140.322 39.7771C141.799 39.7771 142.178 39.7392 142.708 39.0952C143.276 38.4512 143.655 37.5041 143.655 36.4434C143.655 34.2083 142.67 31.8596 140.094 31.8596ZM117.099 31.8596C116.796 31.8596 116.266 31.8975 115.849 31.9732C115.622 32.0111 115.546 32.0869 115.546 32.2763V39.3604C115.546 39.5498 115.584 39.5877 115.736 39.6635C115.887 39.7014 116.38 39.7771 117.327 39.7771C118.804 39.7771 119.183 39.7392 119.713 39.0952C120.281 38.4512 120.66 37.5041 120.66 36.4434C120.66 34.2083 119.713 31.8596 117.099 31.8596ZM78.004 8.44788C78.7617 8.44788 79.3678 8.52364 79.8603 8.63729C80.2391 8.71306 80.3907 8.75094 80.5422 8.75094C80.6937 8.75094 80.7316 8.78883 80.7316 8.90248C80.7316 9.01613 80.6559 9.66014 80.6559 10.986C80.6559 11.2891 80.618 11.4406 80.5043 11.4406C80.3907 11.4406 80.3528 11.327 80.3528 11.1755C80.3149 10.9482 80.2013 10.4178 80.0876 10.1905C79.974 9.9632 79.4436 9.12977 77.6252 9.12977C76.2614 9.12977 75.2007 10.0011 75.2007 11.4406C75.2007 12.5771 75.7311 13.2969 77.6252 14.7743L78.1935 15.2289C80.5422 17.0852 81.0726 18.2975 81.0726 19.8885C81.0726 20.6841 80.7695 22.1994 79.4057 23.1844C78.5344 23.7905 77.4737 24.0178 76.413 24.0178C75.4659 24.0178 74.5567 23.8663 73.7611 23.4874C73.496 23.3359 73.4581 23.2601 73.4581 22.7298C73.4581 21.7448 73.5338 20.9493 73.5717 20.6462C73.6096 20.4189 73.6475 20.3431 73.7233 20.3431C73.8369 20.3431 73.8748 20.4189 73.8748 20.5704C73.8748 20.7599 73.8748 21.025 73.9506 21.2902C74.2536 22.7677 75.5416 23.298 76.8676 23.298C78.7617 23.298 79.7088 21.9342 79.7088 20.6462C79.7088 19.2824 79.1405 18.4869 77.4358 17.0852L76.5266 16.3654C74.443 14.6607 73.9506 13.4105 73.9506 12.0468C73.9127 9.88743 75.4659 8.44788 78.004 8.44788ZM138.882 8.44788C139.034 8.44788 139.375 8.90248 139.564 9.09189C139.867 9.43284 142.822 12.615 145.853 15.8729C147.822 17.9565 149.982 20.381 150.626 21.0629L150.398 10.986C150.361 9.69802 150.247 9.24342 149.641 9.09189C149.3 9.01613 148.959 8.97824 148.807 8.97824C148.58 8.97824 148.542 8.90247 148.542 8.82671C148.542 8.71306 148.694 8.67518 148.921 8.67518C149.83 8.67518 150.777 8.75094 150.967 8.75094C151.194 8.75094 151.838 8.67518 152.634 8.67518C152.861 8.67518 152.975 8.71306 152.975 8.82671C152.975 8.90247 152.899 8.94036 152.747 8.97824C152.596 9.01612 152.482 9.01612 152.217 9.05401C151.649 9.16766 151.535 9.47072 151.535 10.8345L151.497 22.3888C151.497 23.7147 151.459 23.7905 151.308 23.7905C151.156 23.7905 150.929 23.5632 149.868 22.5404C149.641 22.3509 146.8 19.4339 144.678 17.161C142.367 14.6986 140.132 12.1983 139.488 11.4785L139.753 20.9872C139.791 22.6161 139.981 23.1086 140.511 23.298C140.89 23.4117 141.307 23.4117 141.496 23.4117C141.61 23.4117 141.648 23.4495 141.648 23.5253C141.648 23.639 141.534 23.6768 141.307 23.6768C140.17 23.6768 139.375 23.6011 139.223 23.6011C139.071 23.6011 138.2 23.6768 137.329 23.6768C137.139 23.6768 137.026 23.639 137.026 23.5253C137.026 23.4495 137.102 23.4117 137.177 23.4117C137.329 23.4117 137.708 23.3738 137.973 23.298C138.465 23.1465 138.541 22.6161 138.579 20.9872V17.2746C138.579 10.8724 138.617 13.1833 138.617 9.47072C138.693 8.6373 138.731 8.44788 138.882 8.44788ZM193.926 8.56153C194.002 8.56153 194.002 8.63729 194.002 8.75094C194.002 8.90247 193.888 9.12977 193.85 9.69802C193.812 10.0011 193.812 10.3799 193.775 10.8724C193.737 11.0618 193.699 11.2133 193.623 11.2133C193.509 11.2133 193.471 11.0997 193.471 10.9482C193.471 10.683 193.434 10.4557 193.358 10.3041C193.206 9.84955 192.79 9.66013 191.918 9.58437C191.577 9.54648 189.418 9.5086 189.191 9.5086C189.115 9.5086 189.077 9.58437 189.077 9.69802V15.1532C189.077 15.3047 189.115 15.3426 189.191 15.3426H189.607C190.403 15.3426 191.994 15.3426 192.335 15.3047C192.865 15.2668 193.131 15.1911 193.32 14.9638C193.434 14.8501 193.471 14.7743 193.547 14.7743C193.623 14.7743 193.661 14.8122 193.661 14.9259C193.661 15.0395 193.547 15.3805 193.509 16.0245C193.434 16.6306 193.434 17.0852 193.434 17.3883C193.396 17.5777 193.358 17.6913 193.282 17.6913C193.168 17.6913 193.131 17.5398 193.131 17.3883C193.131 17.1989 193.093 17.0094 193.055 16.82C192.979 16.517 192.752 16.2518 192.032 16.176C191.502 16.1002 189.532 16.0624 189.191 16.0624C189.077 16.0624 189.039 16.1381 189.039 16.2139V17.9565C189.039 18.6384 189.001 20.9114 189.039 21.3281C189.077 22.1236 189.191 22.5782 189.683 22.7677C190.024 22.9192 190.554 22.9571 191.312 22.9571C191.918 22.9571 192.562 22.9192 193.093 22.7677C193.737 22.5782 193.926 22.1615 194.115 21.2902C194.153 21.0629 194.191 20.9872 194.305 20.9872C194.419 20.9872 194.419 21.1387 194.419 21.2902C194.419 21.4418 194.267 22.8055 194.153 23.2222C194.04 23.7147 193.888 23.7526 193.206 23.7526H193.093C191.615 23.7526 190.971 23.7147 190.214 23.6768C189.418 23.639 188.509 23.6011 187.751 23.6011C187.259 23.6011 186.804 23.6768 186.274 23.6768C186.046 23.6768 185.971 23.639 185.971 23.5253C185.971 23.4495 186.084 23.4117 186.198 23.4117C186.387 23.3738 186.501 23.3738 186.653 23.3359C187.069 23.2223 187.334 22.9571 187.372 21.4796C187.41 20.722 187.41 19.6991 187.41 17.9186V14.4334C187.41 11.327 187.41 10.7966 187.372 10.1526C187.334 9.47072 187.183 9.16765 186.539 9.01612C186.387 8.97824 186.16 8.97824 185.971 8.94036C185.819 8.90247 185.705 8.90247 185.705 8.82671C185.705 8.71306 185.819 8.67518 186.009 8.67518H186.16C186.577 8.67518 187.145 8.67518 188.244 8.75094H189.229C190.479 8.75094 192.486 8.75094 192.79 8.71306C193.244 8.67518 193.585 8.63729 193.699 8.59941C193.812 8.56153 193.85 8.56153 193.926 8.56153ZM167.825 8.75094C167.938 8.75094 169.378 8.67518 169.946 8.67518C170.173 8.67518 170.249 8.71306 170.249 8.82671C170.249 8.90247 170.173 8.94036 170.098 8.94036C169.946 8.94036 169.681 8.97824 169.454 9.01612C168.885 9.12977 168.734 9.47072 168.696 10.1526V10.3041C168.658 10.7587 168.658 11.2512 168.658 12.7665V17.9565C168.658 20.8735 168.734 22.1236 169.113 22.5025C169.416 22.8055 169.946 22.9571 171.499 22.9571C172.56 22.9571 173.431 22.9192 173.886 22.3509C174.151 22.0479 174.341 21.5554 174.416 21.1766C174.454 21.025 174.492 20.9114 174.606 20.9114C174.719 20.9114 174.719 20.9872 174.719 21.2145C174.719 21.4418 174.568 22.6161 174.416 23.1844C174.265 23.639 174.227 23.7147 173.166 23.7147C171.461 23.7147 169.795 23.6011 167.863 23.6011C167.256 23.6011 166.65 23.6768 165.931 23.6768C165.703 23.6768 165.627 23.639 165.627 23.5253C165.627 23.4495 165.665 23.4117 165.779 23.4117C165.968 23.4117 166.196 23.3738 166.385 23.3359C166.764 23.2601 166.878 22.8055 166.953 22.2373C167.029 21.4796 167.067 20.1537 167.067 18.4869V13.1075C167.067 11.1376 167.067 10.683 167.029 10.1526C166.991 9.47072 166.84 9.16765 166.196 9.01612C166.044 8.97824 165.703 8.94036 165.514 8.94036C165.438 8.94036 165.362 8.90247 165.362 8.82671C165.362 8.71306 165.476 8.67518 165.665 8.67518C166.499 8.71306 167.749 8.75094 167.825 8.75094ZM120.016 8.44788C120.13 8.44788 120.206 8.56153 120.471 9.16766C120.774 9.92532 123.88 18.108 125.093 21.1008C125.812 22.8813 126.381 23.1844 126.797 23.298C127.1 23.4117 127.403 23.4117 127.555 23.4117C127.669 23.4117 127.782 23.4495 127.782 23.5253C127.782 23.639 127.593 23.6768 127.403 23.6768C127.1 23.6768 125.661 23.6768 124.297 23.639C123.918 23.6011 123.691 23.6011 123.691 23.4874C123.691 23.4117 123.767 23.3738 123.842 23.3359C123.956 23.298 124.07 23.1086 123.956 22.8055L122.1 17.9186C122.062 17.8429 122.024 17.805 121.91 17.805H117.668C117.554 17.805 117.516 17.8807 117.478 17.9565L116.304 21.4796C116.114 21.9721 116.039 22.4646 116.039 22.8055C116.039 23.1844 116.417 23.3738 116.758 23.3738H116.948C117.137 23.3738 117.213 23.4117 117.213 23.4874C117.213 23.6011 117.024 23.639 116.872 23.639C116.38 23.639 115.622 23.5632 115.395 23.5632C115.167 23.5632 114.069 23.639 113.159 23.639C112.894 23.639 112.781 23.6011 112.781 23.4874C112.781 23.4117 112.894 23.3738 113.046 23.3738C113.197 23.3738 113.349 23.3359 113.538 23.3359C114.448 23.2223 114.864 22.4646 115.205 21.4796L119.713 9.16766C119.827 8.56153 119.903 8.44788 120.016 8.44788ZM92.589 8.44788C92.7405 8.44788 92.9299 8.63729 93.4603 8.67518C94.0286 8.75094 94.7862 8.78883 95.0135 8.78883H102.439C103.083 8.78883 103.537 8.75094 103.84 8.67518C104.143 8.63729 104.333 8.56153 104.409 8.56153C104.522 8.56153 104.522 8.67518 104.522 8.78883C104.522 9.39495 104.446 10.7587 104.446 10.986C104.446 11.1755 104.371 11.2512 104.295 11.2512C104.181 11.2512 104.143 11.1755 104.143 10.9103C104.143 10.8345 104.105 10.7587 104.105 10.683C104.03 10.0768 103.575 9.62225 101.681 9.58437C100.848 9.54648 100.014 9.54649 99.1806 9.54649V18.4869C99.1806 20.1537 99.1806 21.4796 99.2943 22.2373C99.3701 22.8055 99.4837 23.2601 100.052 23.3359C100.317 23.3738 100.772 23.4117 100.961 23.4117C101.075 23.4117 101.113 23.4874 101.113 23.5253C101.113 23.639 100.999 23.6768 100.81 23.6768C99.711 23.6768 98.4609 23.6011 98.3851 23.6011C98.2715 23.6011 97.0213 23.6768 96.4531 23.6768C96.2258 23.6768 96.15 23.639 96.15 23.5253C96.15 23.4495 96.1879 23.4117 96.3015 23.4117C96.491 23.4117 96.7183 23.3738 96.9077 23.3359C97.2865 23.2601 97.4001 22.8055 97.4759 22.2373C97.5517 21.5175 97.5896 20.3053 97.5896 18.7521V9.54649C96.6046 9.58437 95.6196 9.58437 94.6726 9.58437C93.4603 9.62225 92.9678 9.7359 92.6648 10.2284C92.4375 10.5693 92.3996 10.7209 92.3238 10.8345C92.2481 10.986 92.2102 11.0239 92.1344 11.0239C92.0586 11.0239 92.0208 10.9482 92.0208 10.8345C92.0208 10.6451 92.3996 8.94036 92.4754 8.78883C92.4375 8.67518 92.5132 8.44788 92.589 8.44788ZM218.588 8.71306C218.739 8.71306 218.853 8.75094 218.853 8.82671C218.853 8.94036 218.739 8.97824 218.588 8.97824C218.361 8.97824 217.982 9.05401 217.679 9.24342C217.3 9.47072 217.073 9.7359 216.618 10.2663C215.974 11.0618 213.171 15.7214 212.83 16.5548C212.564 17.1989 212.527 17.7671 212.527 18.3353V20.4189C212.527 20.7977 212.527 21.5175 212.602 22.2373C212.64 22.8055 212.83 23.2601 213.398 23.3359C213.663 23.3738 214.118 23.4117 214.307 23.4117C214.421 23.4117 214.459 23.4874 214.459 23.5253C214.459 23.639 214.345 23.6768 214.156 23.6768C213.057 23.6768 211.807 23.6011 211.731 23.6011C211.617 23.6011 210.367 23.6768 209.799 23.6768C209.572 23.6768 209.496 23.639 209.496 23.5253C209.496 23.4495 209.534 23.4117 209.647 23.4117C209.837 23.4117 210.064 23.3738 210.254 23.3359C210.632 23.2601 210.822 22.8055 210.86 22.2373C210.898 21.5175 210.936 20.7977 210.936 20.4189V18.5626C210.936 17.5019 210.746 17.0473 210.481 16.4791C210.329 16.176 207.678 11.8195 206.996 10.7587C206.503 10.039 206.011 9.54649 205.632 9.28131C205.329 9.09189 204.95 8.97824 204.798 8.97824C204.685 8.97824 204.609 8.94036 204.609 8.82671C204.609 8.75094 204.685 8.67518 204.874 8.67518C205.253 8.67518 206.731 8.75094 206.844 8.75094C206.996 8.75094 207.753 8.67518 208.511 8.67518C208.738 8.67518 208.776 8.75094 208.776 8.82671C208.776 8.90247 208.663 8.94036 208.473 9.01612C208.322 9.09189 208.208 9.20554 208.208 9.35707C208.208 9.58437 208.322 9.84955 208.473 10.1147C208.776 10.683 211.769 15.7972 212.11 16.3654C212.489 15.532 214.989 11.1755 215.406 10.5314C215.671 10.1147 215.747 9.77378 215.747 9.5086C215.747 9.24342 215.671 9.01612 215.444 8.94036C215.254 8.86459 215.141 8.82671 215.141 8.75094C215.141 8.67518 215.254 8.63729 215.444 8.63729C215.974 8.63729 216.58 8.71306 216.77 8.71306C216.807 8.75094 218.209 8.71306 218.588 8.71306ZM119.524 11.6301L117.781 16.9716C117.743 17.0852 117.781 17.1231 117.857 17.1231H121.645C121.759 17.1231 121.759 17.0473 121.721 16.9716L119.827 11.6301C119.751 11.327 119.637 11.327 119.524 11.6301Z" fill="white"/>
</svg>
