<svg width="168" height="68" viewBox="0 0 168 68" fill="none" xmlns="http://www.w3.org/2000/svg">
<g clip-path="url(#clip0_11315_4517)">
<path fill-rule="evenodd" clip-rule="evenodd" d="M159.267 57.9152C158.074 57.9152 156.865 57.9152 155.672 57.9152C155.755 57.7334 155.838 57.5681 155.92 57.4028C156.517 56.2294 157.13 55.8492 158.455 55.8492C159.068 55.8492 159.681 55.8492 160.294 55.8492C159.963 56.5269 159.615 57.221 159.267 57.9152Z" fill="white"/>
<path fill-rule="evenodd" clip-rule="evenodd" d="M155.393 65.8979C156.486 63.6832 157.596 61.4685 158.69 59.2539C157.497 59.2539 156.288 59.2539 155.095 59.2539C154.15 61.171 153.19 63.0717 152.245 64.9888C151.914 65.6334 151.483 65.8979 150.721 65.8979C147.806 65.8979 144.89 65.8979 141.974 65.8979C143.167 63.5344 144.343 61.171 145.519 58.7911C146.016 57.7994 146.199 57.7333 147.375 57.7333C147.723 57.7333 148.071 57.7333 148.418 57.7333C149.429 57.7333 149.909 57.4524 150.324 56.6425C150.489 56.312 150.638 55.9814 150.804 55.6674C149.562 55.6674 148.319 55.6674 147.077 55.6674C147.607 54.5931 148.153 53.5189 148.684 52.4446C147.905 52.4446 147.11 52.4446 146.331 52.4446C145.304 52.4446 144.824 52.709 144.426 53.5189C144.078 54.2295 143.714 54.9567 143.366 55.6674C142.703 55.6674 142.057 55.6674 141.394 55.6674C141.063 56.3616 140.715 57.0392 140.367 57.7333C141.03 57.7333 141.676 57.7333 142.339 57.7333C141.924 58.5432 139.108 64.179 138.711 64.9888C138.396 65.6334 137.949 65.8979 137.203 65.8979C134.602 65.8979 132.018 65.8979 129.433 65.8979C130.808 63.3857 132.183 60.8735 133.558 58.3614C132.614 58.3614 131.653 58.3614 130.709 58.3614C130.046 58.3614 129.765 58.5762 129.334 59.0886C129.334 58.5432 129.135 58.3614 128.622 58.3614C127.959 58.3614 127.296 58.3614 126.65 58.3614C123.403 58.3614 121.581 59.3695 120.173 61.9313C119.609 62.956 119.046 63.9807 118.5 65.0054C118.135 65.6499 117.704 65.8979 116.975 65.8979C115.319 65.8979 113.646 65.8979 111.972 65.9144C110.167 65.9144 109.454 65.6499 109.255 64.6914C109.04 63.6832 109.487 62.8403 111.923 61.2371C112.387 60.9396 112.834 60.6422 113.298 60.3281C113.927 59.9149 114.192 59.6836 114.109 59.2373C114.027 58.8241 113.778 58.3614 111.807 58.3614C108.659 58.3779 105.528 58.3779 102.38 58.3779C101.386 58.3779 100.923 58.6258 100.475 59.4522C99.4647 61.3032 98.4376 63.1543 97.4271 65.0054C97.0792 65.6499 96.6485 65.9144 95.9195 65.9144C90.8833 65.9144 85.8471 65.9144 80.811 65.9144C81.0263 65.2863 81.2417 64.6418 81.4571 64.0137C83.9751 64.0137 86.4767 64.0137 88.9948 64.0137C90.4857 64.0137 91.0987 63.6336 91.6454 62.3775C91.8773 61.8156 92.1258 61.2371 92.3577 60.6752C92.54 60.262 92.6891 59.6505 92.3909 59.1877C92.0264 58.6589 91.1153 58.3779 89.7568 58.3779C87.3381 58.3779 84.9194 58.3779 82.5007 58.3779C80.1814 58.3779 79.1378 59.0225 78.326 60.9231C77.8124 62.0966 77.3154 63.2865 76.8185 64.46C76.3049 65.6665 75.4931 65.9144 74.3335 65.9144C72.6106 65.9144 70.8877 65.9144 69.1482 65.9144C69.2642 65.7491 69.3801 65.5838 69.4795 65.4186C70.5067 63.8815 70.3079 62.1792 68.9494 60.7248C67.591 59.3034 65.8184 58.8076 64.228 58.3779C62.8861 58.3779 61.5442 58.3779 60.2023 58.3614C59.2746 60.0472 58.3635 61.733 57.4358 63.4187C56.2761 65.5343 55.0171 65.8979 52.7972 65.8979C51.1736 65.8979 49.5501 65.8979 47.9266 65.8979C49.3016 63.3857 50.6767 60.8735 52.0517 58.3614C51.1074 58.3614 50.1465 58.3614 49.2022 58.3614C48.523 58.3614 48.2414 58.5762 47.8272 59.0886C47.8272 58.5432 47.6284 58.3614 47.0983 58.3614C46.4522 58.3614 45.7896 58.3614 45.1435 58.3614C41.8965 58.3614 40.0742 59.3695 38.666 61.9313C38.1027 62.956 37.5395 63.9807 36.9928 65.0054C36.6283 65.6499 36.2142 65.8979 35.4687 65.8979C33.0003 65.8979 30.5153 65.8979 28.0469 65.8979C30.1509 62.0635 32.2382 58.2292 34.3422 54.3948C34.7066 53.7337 34.2262 52.9073 33.4642 52.9073C23.6237 52.9073 13.7833 52.9073 3.94281 52.9073C1.93827 52.9073 0.944286 53.4197 0 55.0228C4.25757 55.0228 8.49857 55.0228 12.7561 55.0228C10.3871 59.353 8.01814 63.6832 5.64915 67.9968C6.87506 67.9968 8.10098 67.9968 9.32689 67.9968C11.6959 63.6832 14.0649 59.353 16.4339 55.0394C18.1402 55.0394 19.8466 55.0394 21.5363 55.0394C19.1673 59.353 16.7983 63.6832 14.4293 67.9968C15.6553 67.9968 16.8812 67.9968 18.1071 67.9968C20.4761 63.6832 22.8451 59.353 25.2141 55.0394C26.9204 55.0394 28.6268 55.0394 30.3165 55.0394C28.3617 58.6093 26.4069 62.1792 24.452 65.7491C24.187 66.2284 23.9219 66.906 24.2035 67.3853C24.452 67.782 25.0484 67.9968 25.943 67.9968C29.1569 67.9968 32.3873 67.9968 35.6178 67.9968C36.0982 67.9968 36.297 67.8481 36.5952 67.501C36.5952 67.8811 36.91 67.9968 37.291 67.9968C42.8407 67.9968 48.3905 67.9968 53.9402 67.9968C57.237 67.9968 58.993 67.0382 60.4177 64.4434C61.1466 63.1213 61.8756 61.7825 62.6045 60.4438C62.6376 60.4604 62.8033 60.4934 62.8364 60.4934C65.4539 60.9892 66.7792 61.9643 66.8952 63.4518C66.9449 64.0633 66.7461 64.6252 66.3485 65.0715C65.8515 65.6004 65.106 65.8979 64.2777 65.9144C62.6045 65.9144 61.9253 66.5589 61.2792 67.9968C65.9675 67.9968 70.6723 67.9968 75.3772 67.9968C75.841 67.9968 76.0564 67.8481 76.338 67.501C76.3546 67.8811 76.6694 67.9968 77.0504 67.9968C83.9917 67.9968 90.933 67.9968 97.8909 67.9968C99.2991 67.9968 99.912 67.6332 100.608 66.3441C101.42 64.8732 102.231 63.3857 103.043 61.8982C103.606 60.8901 104.302 60.4934 105.511 60.4934C106.737 60.4934 107.963 60.4934 109.189 60.4934C108.56 60.9231 107.88 61.4685 107.35 61.9974C106.655 62.7246 105.975 63.6997 105.859 64.9723C105.76 65.8648 105.992 66.6251 106.489 67.187C106.969 67.7159 107.698 67.9968 108.56 67.9968C111.426 67.9968 114.275 67.9968 117.141 67.9968C117.605 67.9968 117.82 67.8481 118.102 67.501C118.102 67.8811 118.433 67.9968 118.814 67.9968C124.811 67.9968 130.825 67.9968 136.839 67.9968C137.319 67.9968 137.518 67.8481 137.816 67.501C137.816 67.8811 138.131 67.9968 138.512 67.9968C147.391 67.9968 156.288 67.9968 165.184 67.9968C166.791 67.9968 167.602 67.4845 167.901 66.2615C167.934 66.1292 167.967 66.0135 168 65.8813C163.792 65.8813 159.584 65.8813 155.393 65.8979ZM82.3351 61.4355C82.6995 60.3942 83.5444 60.2951 84.3065 60.2951C85.6815 60.2951 87.0399 60.2951 88.4149 60.2951C88.3155 60.576 88.2327 60.857 88.1333 61.138C87.802 62.1131 87.0399 62.1957 86.3607 62.1957C84.936 62.1957 83.4947 62.1957 82.07 62.1957C82.1694 61.9478 82.2522 61.6834 82.3351 61.4355ZM44.9778 64.4765C44.398 65.5177 43.7353 65.8979 42.5094 65.8979C41.8302 65.8979 41.151 65.8979 40.4717 65.8979C41.2007 64.5591 41.9462 63.2369 42.6751 61.8982C43.2383 60.8735 43.9176 60.4769 45.1269 60.4769C45.8061 60.4769 46.4854 60.4769 47.1646 60.4769C46.4357 61.8156 45.7067 63.1543 44.9778 64.4765ZM126.468 64.4765C125.905 65.5177 125.242 65.8979 124.016 65.8979C123.337 65.8979 122.658 65.8979 121.978 65.8979C122.707 64.5591 123.453 63.2369 124.182 61.8982C124.729 60.8735 125.424 60.4769 126.634 60.4769C127.313 60.4769 127.992 60.4769 128.671 60.4769C127.942 61.8156 127.213 63.1543 126.468 64.4765Z" fill="white"/>
<path fill-rule="evenodd" clip-rule="evenodd" d="M80.6797 44.8586C80.6797 44.2471 80.6797 43.6356 80.6797 43.024C82.2701 43.024 83.8439 43.024 85.4177 43.024C86.9915 43.024 88.5653 43.024 90.1391 43.024C90.1391 43.6356 90.1391 44.2471 90.1391 44.8586C88.5653 44.8586 86.9915 44.8586 85.4177 44.8586C83.8439 44.8586 82.2701 44.8586 80.6797 44.8586Z" fill="white"/>
<path fill-rule="evenodd" clip-rule="evenodd" d="M85.4195 48.6764C86.4134 48.6764 87.4074 48.6764 88.4014 48.6764C88.4014 47.7178 88.4014 46.7757 88.4014 45.8171C87.4074 45.8171 86.4134 45.8171 85.4195 45.8171C84.4255 45.8171 83.4315 45.8171 82.4375 45.8171C82.4375 46.7757 82.4375 47.7178 82.4375 48.6764C83.4315 48.6764 84.4255 48.6764 85.4195 48.6764Z" fill="white"/>
<path fill-rule="evenodd" clip-rule="evenodd" d="M82.432 42.0654C82.4154 40.4953 82.0178 38.9417 80.7422 37.9005C82.2994 37.9005 83.8567 37.9005 85.4139 37.9005C86.9712 37.9005 88.5284 37.9005 90.0856 37.9005C88.81 38.9417 88.3959 40.4953 88.3959 42.0654C87.4019 42.0654 86.4079 42.0654 85.4139 42.0654C84.4199 42.0654 83.4259 42.0654 82.432 42.0654Z" fill="white"/>
<path fill-rule="evenodd" clip-rule="evenodd" d="M74.5312 34.8595C74.5312 34.4133 74.5312 33.9505 74.5312 33.5043C78.1593 33.5043 81.7873 33.5043 85.4154 33.5043C89.0434 33.5043 92.6715 33.5043 96.2829 33.5043C96.2829 33.9505 96.2829 34.4133 96.2829 34.8595C92.6715 34.8595 89.0434 34.8595 85.4154 34.8595C81.7873 34.8595 78.1593 34.8595 74.5312 34.8595Z" fill="white"/>
<path fill-rule="evenodd" clip-rule="evenodd" d="M75.5054 39.7681C76.781 39.4871 78.1394 38.7765 79.0506 37.9005C77.7915 37.9005 76.5325 37.9005 75.2734 37.9005C75.3563 38.512 75.4225 39.1401 75.5054 39.7681Z" fill="white"/>
<path fill-rule="evenodd" clip-rule="evenodd" d="M95.3196 39.7681C94.044 39.4871 92.669 38.7765 91.7578 37.9005C93.0334 37.9005 94.2925 37.9005 95.5515 37.9005C95.4687 38.512 95.3859 39.1401 95.3196 39.7681Z" fill="white"/>
<path fill-rule="evenodd" clip-rule="evenodd" d="M74.1708 30.5128C72.978 23.4721 70.6753 16.134 68.1406 11.308C70.8741 12.7789 73.7898 15.1258 76.9208 18.3156C75.6121 17.9685 74.3199 17.7041 73.0277 17.5057C74.8335 21.7698 76.3244 26.1165 77.6829 30.5128C76.5067 30.5128 75.347 30.5128 74.1708 30.5128Z" fill="white"/>
<path fill-rule="evenodd" clip-rule="evenodd" d="M96.6683 30.5128C97.8445 23.4721 100.147 16.134 102.682 11.308C99.965 12.7789 97.0494 15.1258 93.9183 18.3156C95.2105 17.9685 96.5192 17.7041 97.8114 17.5057C96.0057 21.7698 94.5147 26.1165 93.1562 30.5128C94.3159 30.5128 95.4921 30.5128 96.6683 30.5128Z" fill="white"/>
<path fill-rule="evenodd" clip-rule="evenodd" d="M73.3906 32.7935C73.3906 32.3308 73.3906 31.868 73.3906 31.4218C77.3997 31.4218 81.4088 31.4218 85.4178 31.4218C89.4269 31.4218 93.436 31.4218 97.4451 31.4218C97.4451 31.868 97.4451 32.3308 97.4451 32.7935C93.436 32.7935 89.4269 32.7935 85.4178 32.7935C81.4088 32.7935 77.3997 32.7935 73.3906 32.7935Z" fill="white"/>
<path fill-rule="evenodd" clip-rule="evenodd" d="M81.3616 10.5643C83.2171 7.3745 84.8075 3.75501 85.4204 0.0032959C86.0168 3.75501 87.6072 7.3745 89.4792 10.5643C88.8165 10.2668 88.1042 9.95277 87.3256 9.62222C86.6629 9.3082 86.3813 9.49 86.3978 10.1842C86.6298 16.9604 87.6238 24.6621 91.169 30.5128C89.7774 30.5128 88.3858 30.5128 86.9942 30.5128C86.3316 28.9592 85.818 27.4222 85.4204 25.9017C85.0228 27.4222 84.4927 28.9592 83.8466 30.5128C82.455 30.5128 81.0635 30.5128 79.6719 30.5128C83.2171 24.6621 84.2111 16.9604 84.443 10.1842C84.4596 9.49 84.1779 9.3082 83.4987 9.62222C82.7201 9.95277 82.0243 10.2668 81.3616 10.5643Z" fill="white"/>
<path fill-rule="evenodd" clip-rule="evenodd" d="M73.3906 36.942C73.3906 36.4792 73.3906 36.033 73.3906 35.5702C77.3997 35.5702 81.4088 35.5702 85.4178 35.5702C89.4269 35.5702 93.436 35.5702 97.4451 35.5702C97.4451 36.033 97.4451 36.4792 97.4451 36.942C93.436 36.942 89.4269 36.942 85.4178 36.942C81.4088 36.942 77.3997 36.942 73.3906 36.942Z" fill="white"/>
</g>
<defs>
<clipPath id="clip0_11315_4517">
<rect width="168" height="68" fill="white"/>
</clipPath>
</defs>
</svg>
