<svg width="66" height="68" viewBox="0 0 66 68" fill="none" xmlns="http://www.w3.org/2000/svg">
<path d="M58.6654 38.5907C58.5834 38.6376 58.0796 38.8793 57.9396 38.9335C56.912 39.3926 55.9898 39.3168 54.9617 38.711C54.2231 38.276 53.5376 37.3188 53.2693 36.9827C53.0575 36.7175 52.8012 36.3701 52.4334 36.0407C51.7506 35.4256 50.8268 35.0204 49.2282 35.0501C49.0996 35.0524 48.9726 35.023 48.859 34.9627C47.2439 34.1071 44.4615 33.0639 41.8022 33.1981C41.2751 33.2337 41.1993 32.8498 41.0255 32.4201C40.5418 31.1254 40.1894 30.5259 39.8611 30.0567C39.4433 29.4595 39.2597 29.4549 38.9133 29.3574C38.5276 29.2489 38.1095 29.2079 37.853 28.7601C37.8216 28.7051 37.6958 28.4682 37.8384 28.3015C38.1915 27.8891 39.1708 27.3215 37.6997 26.4895C36.8028 25.9823 37.2022 25.6561 37.3513 25.5791C37.5577 25.4725 37.9137 25.3883 38.3393 25.4732C38.765 25.5582 39.2602 25.8124 39.7455 26.3818C40.2254 26.9448 41.8449 29.5716 42.8291 31.566C42.8423 31.5929 42.8637 31.7365 43.0448 31.7541C43.3192 31.7808 43.7895 31.7815 43.8857 31.7898C44.0374 31.8027 44.0393 31.6802 44.0244 31.6304C42.6291 26.9923 41.0242 21.2197 38.2388 17.2034C38.1823 17.0881 38.2307 16.9675 38.4064 16.9848C40.899 17.2405 41.6222 20.794 43.083 23.1282C44.9595 26.1289 46.0598 24.9529 46.2379 22.929C46.3622 21.5141 45.9897 19.7134 45.0056 18.7038C44.7715 18.4185 44.3572 18.0572 44.1839 17.8435C44.1217 17.7667 44.1125 17.6375 44.2779 17.5963C44.3462 17.5792 44.4439 17.5723 44.5767 17.5772C45.7287 17.6659 47.3291 18.5998 48.0016 19.6397C49.3814 21.7736 49.2786 22.9206 49.0894 23.6769C48.7659 24.9706 48.1624 25.7142 48.9107 27.7598C50.3916 31.8089 50.0043 30.9642 49.1614 33.5111C49.0891 33.7047 49.2077 33.849 49.3744 33.8336C51.3136 33.6554 51.906 34.0952 52.3248 34.32C52.3672 34.3428 52.4037 34.3776 52.4334 34.371C52.5078 34.3448 52.5344 34.2508 52.5472 34.1241C52.7063 33.0314 52.4791 32.5699 52.2303 31.926C52.0843 31.5479 51.9189 31.1216 51.8668 30.7063C51.7822 30.1732 51.8785 29.8732 52.0388 29.4744C52.3117 28.7945 52.4746 28.2676 52.2526 27.2444C51.7622 25.0852 49.9955 21.5297 48.867 19.4819C48.7737 19.3052 48.0006 17.8428 47.8793 17.6288C47.7965 17.4826 47.8317 17.3044 47.8933 17.166C47.9445 17.051 48.0295 16.8207 48.0295 16.8207C48.2989 16.1326 48.4419 15.6071 48.5229 15.0065C48.7843 13.07 48.2775 11.6925 46.8793 10.54C45.5816 9.47037 43.2702 8.99686 40.1924 9.17056L39.5409 9.2076C36.6422 9.37335 33.3568 9.56122 30.8846 9.35645C28.4911 9.15828 27.0933 8.77901 26.6109 8.19685C26.4545 8.00782 26.3938 7.79855 26.4206 7.53783C26.4743 7.01674 26.7893 6.49843 27.2847 6.11593C27.7134 5.78497 28.2201 5.60694 28.5789 5.66321C29.2229 5.68954 29.9292 6.05264 30.7468 6.47311C31.4793 6.84988 32.3097 7.27682 33.2753 7.55483C34.0917 7.78996 34.8998 7.89417 35.676 7.86452C36.4084 7.83653 37.1258 7.68297 37.8082 7.40783C38.0968 7.29141 38.3042 7.158 38.3942 7.07919C38.4408 7.03845 38.4583 6.95724 38.402 6.8813C38.3684 6.83565 38.3261 6.83592 38.1763 6.83584C37.1486 6.83565 36.2334 6.67351 35.6522 6.53705C35.0096 6.37443 34.9543 6.2183 34.9603 6.1587C34.9743 6.02076 35.3131 5.88956 35.7001 5.87219C37.5966 5.78683 39.0488 5.88966 40.0097 5.95738C40.3373 5.98057 40.596 5.99886 40.7828 6.00265C40.9741 6.00653 41.2257 5.99923 41.236 5.99803C41.2933 5.99249 41.3099 5.9559 41.3144 5.94047C41.3251 5.9038 41.3084 5.86028 41.287 5.84328C40.6184 5.29031 38.4463 4.45574 35.9684 4.01615C31.9818 3.3088 29.311 3.8892 27.7728 4.50102C27.4665 4.62279 26.6782 4.96491 25.9772 5.50909C25.2046 6.10881 24.7734 6.76238 24.6956 7.45125C24.5918 8.3734 25.2598 9.56472 29.0331 10.0028C33.0281 10.4669 36.7605 10.4007 40.0534 10.3429C40.3976 10.3368 40.7352 10.3309 41.0657 10.3258C43.1516 10.2953 44.917 10.7984 45.6743 11.644C46.5466 12.6181 46.5986 13.9222 46.378 14.7428C46.3143 14.9793 46.1848 15.3356 46.0295 15.561C45.79 15.8857 45.5272 15.9846 45.0444 15.8569C43.5029 15.449 40.7532 14.5415 39.42 14.0908C38.2326 13.6893 37.2949 13.3721 36.4996 13.1768C34.1386 12.5972 33.4014 12.9811 31.8166 13.9844C31.4344 14.2261 31.0461 14.4911 30.5963 14.7978C29.9458 15.2415 29.2083 15.7446 28.2274 16.3579C27.6358 16.7279 26.8603 17.1554 26.0391 17.6079C25.2041 18.0682 24.3408 18.5441 23.4951 19.0518C20.7827 20.6466 20.3498 22.7851 19.8488 25.2612C19.4931 27.0181 19.0901 29.0095 17.7505 31.0261C17.6037 31.2474 16.4424 32.6582 16.1954 33.0586C15.2778 34.5362 14.7848 35.8113 14.9792 37.9554C15.1246 39.5583 14.5771 40.9535 14.0479 42.3029C13.6311 43.3648 13.2378 44.3678 13.1728 45.442C13.1238 46.1061 13.1476 46.7268 13.1708 47.3272C13.2093 48.3232 13.2241 49.3158 12.9207 50.1757C12.6877 50.8357 12.0968 51.4855 11.8676 52.1242C11.5729 52.9452 11.3665 54.1135 11.3665 55.1865C11.3479 56.0903 10.6775 56.7547 9.96803 57.4584C9.34265 58.0784 8.68823 58.7297 8.45018 59.5728C8.41844 59.6852 8.39732 59.7704 8.35591 59.8374C8.29411 59.9372 8.2016 60.0011 8.07754 60.0893C7.83763 60.26 7.54755 60.4845 7.23063 61.123C6.96315 61.6619 7.03999 62.6229 7.28469 63.09C7.32241 63.1621 7.42784 63.3319 7.58998 63.3505C7.69983 63.3632 7.81024 63.3046 7.91936 63.1776C7.91936 63.1776 8.61232 62.3745 8.88239 62.1335C8.97711 62.0515 9.08993 62.0665 9.1544 62.1148C9.23049 62.1722 9.24783 62.2677 9.20079 62.3709C9.1733 62.4307 8.75557 63.1758 8.51151 63.8039L8.50579 63.8195C8.47259 63.9085 8.43145 64.0193 8.49067 64.1112C8.54831 64.2005 8.68399 64.2494 8.91854 64.265C9.02195 64.2689 9.12165 64.2709 9.21813 64.2709C10.5023 64.2709 11.1775 63.9292 11.5247 63.6284C11.6602 63.4833 11.6871 63.4205 11.7317 63.3164C11.7435 63.2892 11.7565 63.2586 11.7744 63.2197C12.0313 62.5298 12.2035 61.7322 12.2239 61.137C12.2239 60.8847 12.2954 60.813 12.4685 60.6396C13.1445 59.9563 13.1452 59.0539 13.1459 58.1808C13.1466 57.3785 13.1472 56.5488 13.6738 55.8948C15.11 54.2851 15.8563 52.4033 16.5781 50.5837C17.3225 48.7064 18.0923 46.7653 19.6203 45.1464C20.0053 44.7503 20.3827 44.5344 20.6317 44.5745C20.7534 44.593 20.8498 44.6712 20.9188 44.8079C21.2458 45.4138 21.1476 46.2286 21.0524 47.0169C20.9447 47.9078 20.8431 48.7494 21.3145 49.2995C21.6293 49.7081 21.7142 50.1386 21.5592 50.5466C21.358 51.1909 20.7455 53.1518 19.285 54.0195C19.2497 54.0404 18.865 54.315 18.7447 54.4316C18.6818 54.4928 18.6359 54.5748 18.5828 54.6698C18.4549 54.8985 18.2958 55.183 17.7938 55.3316C17.2442 55.4703 16.7269 55.8046 16.4444 56.2047C15.6719 57.2976 15.7051 58.6509 15.7777 59.0389C15.8059 59.1893 15.8565 59.3871 16.0003 59.5833C16.088 59.7034 16.1898 59.7748 16.2948 59.7899C16.3811 59.8024 16.4672 59.7773 16.5488 59.7152C16.6338 59.6502 16.7343 59.534 16.8614 59.3863C17.0609 59.1552 17.309 58.8674 17.6219 58.6372C17.7221 58.5635 17.8208 58.5806 17.8794 58.6217C17.9344 58.6601 17.9596 58.7211 17.9437 58.7773C17.9145 58.8793 17.8214 59.0264 17.7029 59.2127C17.5529 59.4494 17.3662 59.744 17.2189 60.0913C17.1823 60.1685 17.1777 60.24 17.2049 60.3033C17.2473 60.4018 17.3525 60.4427 17.3841 60.453C18.3136 60.75 19.7022 60.3973 20.4793 59.6659C20.869 59.2989 21.0585 58.8127 21.0585 58.1794C21.0585 58.0188 21.1349 57.7693 21.3009 57.603C21.8483 57.1336 22.0751 56.4008 22.315 55.6248C22.3721 55.4405 22.4311 55.2499 22.4948 55.0617C22.7427 54.3307 23.0694 53.7026 23.8585 53.0112C24.8825 52.0525 25.3452 51.1479 25.6372 50.5906C25.9345 49.991 25.9995 49.6564 26.2168 49.3068C26.6441 48.6316 28.0865 48.5042 28.6194 48.8192C28.8404 48.9501 28.8896 49.131 28.7658 49.3573C28.685 49.504 27.9241 50.7373 27.5661 51.5801C27.3903 51.9937 26.9929 52.1482 26.7564 52.2869C25.3278 53.1233 25.0673 54.6988 25.0257 55.3444C25.0128 55.5459 25.035 55.8145 25.1363 55.9644C25.195 56.051 25.2772 56.1069 25.3675 56.1216C25.4568 56.1361 25.5483 56.1102 25.6319 56.0461C25.7153 55.9825 26.4888 55.2004 26.5814 55.1191C26.7093 55.0068 26.8217 55.0256 26.8787 55.0762C26.9395 55.1298 26.9649 55.2365 26.8854 55.3544C26.7777 55.5139 26.2436 56.3196 26.3061 56.4961C26.4122 56.7945 26.7161 56.7886 27.0205 56.7915C29.4715 56.5831 30.338 54.8359 30.338 54.8359C30.3974 54.7341 30.471 54.5998 30.4321 54.2363C30.362 53.5808 30.2075 51.3093 31.5186 49.8949C31.9087 49.4613 32.1374 49.7541 32.226 49.9477C32.3846 50.2954 32.6193 50.8976 32.7527 51.1996C33.036 51.8404 33.2296 52.3136 33.556 52.9479C34.1067 54.0181 34.9342 54.1662 35.9585 54.0373C37.2828 53.8706 38.1959 53.9772 39.0858 54.065C39.8416 54.128 40.2594 54.1788 40.8147 53.6701C41.1175 53.3929 41.6981 52.8852 42.0882 52.3328C42.3353 51.9832 42.4118 51.762 42.3495 51.2182C42.1661 48.4877 43.5837 46.1157 46.139 44.8738C46.5224 44.7185 46.9483 44.7661 47.2085 45.1163C47.7818 45.9681 49.1151 48.1488 49.1151 49.9997C49.1151 50.1744 49.0463 50.3669 48.9668 50.5897C48.786 51.0956 48.5612 51.7249 48.979 52.5836C49.0051 53.3268 48.7303 53.9071 48.4879 54.4193C48.1425 55.1484 47.8699 55.7243 48.8143 56.2915C49.0813 56.4515 49.4276 56.5951 49.8729 56.7303C49.8992 56.7382 49.9252 56.7422 49.9498 56.7422C49.9883 56.7422 50.0237 56.7326 50.0524 56.714C50.085 56.6927 50.1053 56.6617 50.1094 56.627C50.1354 56.413 50.1607 55.6701 50.2008 55.4948C50.2168 55.425 50.2528 55.3408 50.3333 55.336C50.4082 55.3316 50.483 55.3928 50.5042 55.4523C50.5794 55.6308 50.7716 56.3575 50.8246 56.4728C50.87 56.5721 50.9239 56.6395 50.9963 56.6607C51.3751 56.7701 51.8924 56.118 52.0858 55.7821C52.4198 55.0902 52.2828 54.0619 51.7385 53.1659C51.6584 52.9938 51.647 52.9246 51.6461 52.768C51.8474 51.9525 51.7009 51.5395 51.5457 51.1022C51.4562 50.85 51.3659 50.5889 51.3252 50.2311C51.1787 48.9468 51.9634 44.8818 52.0371 44.4642C52.1705 43.7081 52.281 43.1687 52.3289 42.6134C52.3752 42.0761 52.1555 41.4467 51.7824 41.0472C51.4404 40.6812 51.0279 40.3458 50.6293 40.0214C50.2778 39.7352 49.9456 39.465 49.674 39.1864C49.2346 38.7355 49.0947 38.0778 49.0987 37.8921C49.1003 37.8419 49.1094 37.8097 49.1271 37.7938C49.1408 37.7812 49.1632 37.7764 49.1956 37.7787C49.8007 37.8222 50.285 38.2241 50.8981 38.7326C51.4469 39.1878 52.0689 39.7038 52.9402 40.091C54.6616 40.8559 56.2956 40.7428 57.9369 39.7454C58.6346 39.2497 58.8503 38.8246 58.885 38.7656C58.9286 38.6914 58.8652 38.4762 58.6654 38.5907ZM20.5185 31.77C20.6184 30.9748 21.2045 30.1274 21.4616 29.1341C21.828 28.0127 21.9294 26.0532 22.1285 24.4997C22.2278 23.7254 22.5233 23.3978 23.0815 23.3291C23.45 23.2959 23.8342 23.6171 24.0322 24.711C24.7188 29.1904 26.0618 29.81 26.842 30.9964C26.8561 31.0179 26.8696 31.0402 26.8817 31.0628C27.0815 31.4347 27.1455 31.7811 26.8321 32.0322C26.6481 32.1796 26.0367 32.3999 24.9966 31.7717C23.7487 31.0181 23.5604 30.2063 21.4915 31.8647C21.4915 31.8647 21.2146 32.0801 20.9492 32.1393C20.7245 32.1895 20.4767 32.1021 20.5185 31.77ZM31.3498 48.2028C31.2754 48.2492 31.1916 48.2174 31.0703 48.1398C30.2485 47.6135 27.9708 47.1984 26.0483 47.97C24.0702 48.764 22.2585 49.8851 22.1372 47.9255C22.1133 46.1889 22.4827 45.4324 21.8797 44.3989C21.8797 44.3989 21.854 44.364 21.8274 44.3218C21.7755 44.2396 21.8384 44.2216 21.8581 44.22C24.6365 44.0024 25.3782 43.1326 25.5514 42.8283C25.5894 42.7615 25.5394 42.6895 25.4687 42.6816C24.8305 42.6108 21.6481 42.5151 20.3685 42.7005C18.1176 43.0265 16.6057 46.4222 16.3134 46.7432C15.9756 47.1139 15.5497 46.8301 15.5497 46.4922C15.5497 45.9256 15.8837 43.1755 16.1055 42.222C16.4566 40.7127 16.9405 39.5913 18.4104 39.3647C19.4405 39.2059 21.9684 38.9378 21.7946 38.2523C21.6502 37.6856 21.5784 37.2423 21.577 36.9917C21.5751 36.6569 21.746 36.5899 22.0845 36.6652C22.3347 36.7208 22.6701 36.8696 23.1 36.971C26.2802 37.7206 27.9096 37.1235 29.8049 36.2798C29.8584 36.2559 30.5634 35.9384 30.6063 35.9144C30.9479 35.7238 31.377 36.0681 31.187 36.4752C31.0864 36.6909 30.9501 36.7906 30.6583 37.072C30.0324 37.6758 27.6973 39.5931 29.104 42.8345C30.2008 45.3618 30.5199 46.016 31.2981 47.7397C31.4241 48.0189 31.4424 48.145 31.3498 48.2028ZM37.262 52.5758C37.1069 52.8173 36.868 52.989 36.4033 52.989C35.832 52.989 35.4277 52.8174 35.1853 52.5588C34.688 52.0276 34.626 51.3007 34.7478 50.8245C34.8249 50.523 35.0056 50.3247 35.1994 50.2673C35.2844 50.2389 35.3302 50.2453 35.3724 50.3002C35.4586 50.4388 35.7674 50.9286 35.8386 51.0304C35.922 51.1494 36.0729 51.2544 36.1961 51.3037C36.4283 51.3968 36.7247 51.4776 36.8814 51.549C37.361 51.7564 37.4716 52.2495 37.262 52.5758ZM46.4311 43.6387C46.3708 43.7368 46.3169 43.7526 46.2359 43.7896C43.3551 44.8813 41.0651 47.8272 41.4805 51.3667C41.4887 51.5516 41.4312 51.8108 41.2573 51.985C41.2573 51.985 40.6528 52.6003 40.2721 52.8624C40.1421 52.9519 39.9956 53.025 39.6556 53.0031C39.1228 52.969 38.3724 52.9217 38.3724 52.9217C38.171 52.888 38.2571 52.7127 38.2724 52.6743C38.2867 52.6376 38.3008 52.5951 38.3117 52.5456C38.4208 52.0145 38.3429 51.2704 37.5977 50.9919C37.4906 50.9315 37.5578 50.8331 37.5707 50.801C37.8907 50.0118 38.2908 49.035 38.6118 47.6656C38.8058 46.8377 38.6867 46.3383 38.3969 45.743C38.3328 45.6111 38.2487 45.4893 38.1532 45.3783L37.7 44.7764C37.5737 44.6297 37.6068 44.4751 37.789 44.4099L38.4278 44.2468C38.5837 44.1911 38.5687 43.9543 38.4186 43.9163L38.0889 43.8106C37.777 43.6819 37.5871 43.4325 37.4471 43.24C37.4241 43.2084 37.3839 43.1445 37.3455 43.0751C37.2754 42.9482 37.2246 42.8114 37.1954 42.6693L37.157 42.4825C37.1528 42.3874 37.0034 42.3862 36.9381 42.4518C36.4341 42.9587 36.2783 43.7369 36.6483 44.3554C37.1667 45.2218 37.1458 45.1366 37.6076 45.7918C37.7603 46.0083 37.8515 46.1844 37.902 46.3984C37.9717 46.694 37.9518 47.4436 37.7541 47.9785L37.2299 49.5734C36.9135 50.2867 36.5606 50.1147 36.3602 49.9813C36.1019 49.8094 35.8612 49.3636 35.7308 48.8907C35.7308 48.8907 35.3703 47.5593 35.3827 45.7897C35.3588 45.5758 35.2134 45.2263 34.7498 45.5323L33.5166 46.5574C33.3425 46.6502 33.0404 46.5994 33.1016 46.1975C33.1016 46.1975 33.9879 42.2373 34.9423 40.0062C35.6589 38.1865 34.8612 37.1607 33.9103 36.0341C32.3568 34.0483 32.0088 31.3772 35.6262 32.8405C36.5974 33.2853 36.9446 32.7086 38.1427 32.6046C39.0021 32.5302 39.2847 32.8785 39.3581 33.0259C39.4237 33.1577 39.4464 33.3034 39.454 33.3797C39.4574 33.4129 39.4464 33.4348 39.4102 33.4354C37.3821 33.5509 34.9619 35.2385 36.8311 37.8866C38.6664 40.4809 43.7173 41.3533 45.973 38.8797C46.0027 38.8466 46.0103 38.772 45.965 38.7344C45.9417 38.7149 45.9018 38.697 45.8492 38.7169C45.356 38.9042 44.902 39.0455 44.4464 39.1205C43.3688 39.2981 41.0859 39.1685 40.0067 37.9349C39.3892 37.2292 39.4057 36.4142 40.4495 36.2898C41.0306 36.243 41.3149 36.3501 41.5666 36.3548C42.2175 36.346 42.3511 35.6938 42.217 35.399C42.1054 35.1165 41.846 34.7749 41.4813 34.4779C41.1446 34.2381 41.3268 33.9872 41.5457 33.9932C43.635 34.1124 45.6322 34.4746 46.3855 36.9866C46.4144 37.0806 46.4655 37.3981 46.5452 37.5166C46.7069 37.7569 46.9883 37.9372 47.2981 38.2079C48.0563 38.8702 48.7367 40.0509 46.4311 43.6387ZM49.145 42.0853C49.5118 41.3168 50.01 41.8322 50.2476 42.676C50.5495 43.7478 50.5929 45.4722 50.4656 46.3615C50.2996 47.5216 49.7551 47.2892 49.4638 46.8767C49.0039 46.2251 48.5062 45.3578 48.1593 44.7627C48.1487 44.7446 48.1388 44.7262 48.1297 44.7072C47.9685 44.3726 47.9442 44.1075 48.1132 43.8589C48.2871 43.5918 48.9763 42.4387 49.145 42.0853Z" fill="white"/>
</svg>
