<svg width="189" height="68" viewBox="0 0 189 68" fill="none" xmlns="http://www.w3.org/2000/svg">
<path d="M163.969 12.3967V0.00925021H129.499L123.83 41.3932L118.22 0.00945119H105.79L107.182 11.052C105.747 8.22318 100.657 0.00945119 89.4576 0.00945119C89.3838 0.00462514 77.0102 0.00945119 77.0102 0.00945119L76.9626 60.3298L67.9023 0.00945119L51.6226 0L42.2496 62.5001L42.2545 0.00904924H26.6738L21.0568 35.1155L15.5857 0.00945119H0V67.9574H12.2734V35.2066L17.8564 67.9566H24.3814L29.8859 35.2066V67.9566H53.547L54.9827 57.5011H64.509L65.9399 67.9566L89.1695 67.9708H89.1884V67.9566H89.2028H89.2173V45.9005L92.0651 45.4857L97.9607 67.9708H97.9752H109.962H109.976L109.971 67.9566H109.992H110.007L102.27 41.6029C106.191 38.7029 110.618 31.3381 109.44 24.2927V24.2881C109.454 24.3834 116.742 68 116.742 68L131.032 67.9566L140.797 6.36737V67.9568H163.969V55.7362H152.97V40.1529H163.969V27.7463H152.97V12.3967H163.969ZM56.4286 46.7262L59.7983 17.6772L63.2972 46.7262H56.4286ZM92.1049 33.313C91.1604 33.7711 90.1755 34.0001 89.2167 34.0001V12.1439C89.2334 12.1439 89.2527 12.1395 89.2764 12.1395C90.2376 12.1347 97.4041 12.4303 97.4041 22.9527C97.4041 28.457 94.9667 31.9251 92.1049 33.313ZM188.698 55.7268V67.9471H166.093V0H178.264V55.7268H188.698Z" fill="white"/>
</svg>
