<svg width="75" height="68" viewBox="0 0 75 68" fill="none" xmlns="http://www.w3.org/2000/svg">
<g clip-path="url(#clip0_11315_4512)">
<path d="M0 54.0888V62.3863C0 65.7555 2.29666 67.9029 5.64155 67.9029C9.15995 67.9029 11.3135 65.6383 11.3135 62.1591V54.0888H8.33555V62.0075C8.33555 63.9046 7.38016 65.0811 5.67329 65.0811C3.80266 65.0811 2.97804 63.7281 2.97804 62.1591V54.0888H0ZM12.7614 54.2034V67.7676H17.5046C20.1316 67.7676 22.3638 66.4277 22.3638 63.7703C22.3638 60.9964 19.9365 60.3816 19.9365 60.3816C19.9365 60.3816 21.7339 59.8823 21.7339 57.5092C21.7339 55.1376 19.4621 54.2034 17.5046 54.2034H12.7614ZM15.7616 56.7798H17.2015C18.2007 56.7798 18.8401 57.3061 18.8401 58.2219C18.8401 59.0411 18.2977 59.6593 17.2772 59.6593H15.7617V56.7798H15.7616ZM15.7616 61.7811H17.353C18.8494 61.7811 19.3683 62.5498 19.3683 63.4671C19.3683 64.5345 18.6971 65.1603 17.5046 65.1603H15.7617V61.7812L15.7616 61.7811ZM23.491 54.2024H26.4842V67.7666H23.491V54.2024ZM56.151 67.7666H53.1578V54.2024H62.5542V57.0062H56.151V60.1131H61.9859V62.3863H56.151V67.7666ZM63.653 54.2024V57.0062H67.5176V67.7666H70.5487V57.0062H74.3376V54.2024H63.653ZM29.9012 63.2564L27.5234 64.9949C27.5234 64.9949 28.3451 68 32.4643 68C35.2073 68 37.2258 66.3992 37.2258 63.5849C37.2258 59.0495 30.8841 60.0117 30.8841 57.6793C30.8841 57.0655 31.4299 56.5232 32.4373 56.5232C34.0537 56.5232 34.6681 58.1089 34.6681 58.1089L37.0466 56.4396C37.0466 56.4396 36.1176 53.9632 32.5568 53.9632C29.6305 53.9632 28.076 55.8406 28.076 57.7778C28.076 62.3998 34.2331 61.3966 34.2331 63.8222C34.2331 64.6408 33.5881 65.2422 32.5835 65.2353C30.5931 65.2353 29.9012 63.2564 29.9012 63.2564ZM44.9549 53.957C41.43 53.957 39.8589 55.8703 39.8589 55.8703L40.3136 56.325C40.3136 56.325 38.0331 57.9448 38.0331 61.4234C38.0331 65.4261 41.1201 67.997 44.9715 67.997C49.4465 67.997 51.9856 64.6951 51.9856 60.9829C51.9856 57.0244 49.0867 53.957 44.9549 53.957ZM45.0188 56.7726C47.4088 56.7726 48.9592 58.5993 48.9592 60.9711C48.9592 63.3183 47.4273 65.1957 45.0188 65.1957C42.6394 65.1957 41.076 63.5341 41.076 61.3287C41.076 59.3215 42.4353 58.4467 42.4353 58.4467L41.9427 57.9542C41.9427 57.9542 42.9908 56.7726 45.0188 56.7726ZM35.7947 0C20.4219 0 13.7863 13.6835 13.7863 13.6835L15.7396 15.0818C15.7396 15.0818 13.2816 19.756 13.3496 25.7514C13.3496 37.9904 23.0921 49.5195 37.4339 49.5195C50.4629 49.5195 61.2257 38.9148 61.2257 25.7815C61.2257 8.65282 47.9429 0 35.7948 0H35.7947ZM35.9281 4.17539C47.9389 4.17539 57.259 13.8541 57.259 25.1061C57.259 37.0339 48.2879 45.329 37.834 45.329C30.1402 45.329 23.1997 39.4701 23.1997 31.4369C23.1997 26.7972 25.6658 23.5625 28.4292 21.8385L28.8336 22.2773C28.0774 22.8691 25.921 26.333 25.921 29.7376C25.921 36.0579 30.8774 40.4352 37.122 40.4352C45.0766 40.4352 50.3817 33.6506 50.3817 25.773C50.3817 16.6075 42.2913 8.82618 32.5551 8.82618C27.1699 8.82618 22.5994 11.1421 19.973 13.1866L19.5643 12.8166C23.0003 7.5188 28.9505 4.17539 35.9281 4.17539ZM32.3443 12.9435C38.5574 12.9435 44.6234 17.0539 46.1375 22.8882L45.5868 23.0969C42.8682 19.5069 38.4135 16.5316 33.1531 16.5316C23.4734 16.5316 18.3899 25.3275 19.1362 32.6738L18.5662 32.8826C18.5662 32.8826 17.4971 30.5235 17.4971 27.7262C17.4971 19.6256 24.1494 12.9435 32.3443 12.9435ZM36.4508 23.1098C39.3924 23.1098 41.7449 25.494 41.7449 28.3243C41.7449 30.6663 40.2412 32.0544 40.2412 32.0544L42.0223 33.2998C42.0223 33.2998 40.2561 36.0727 36.6509 36.0727C33.2023 36.0727 30.1523 33.2892 30.1523 29.5461C30.1523 25.6891 33.4698 23.1098 36.4508 23.1098Z" fill="white"/>
</g>
<defs>
<clipPath id="clip0_11315_4512">
<rect width="74.3376" height="68" fill="white"/>
</clipPath>
</defs>
</svg>
