<svg width="68" height="68" viewBox="0 0 68 68" fill="none" xmlns="http://www.w3.org/2000/svg">
<g clip-path="url(#clip0_11315_4481)">
<path d="M33.9999 0C15.2223 0 0 15.2223 0 34C0 52.7778 15.2223 68 33.9999 68C52.7776 68 67.9999 52.7777 67.9999 34C67.9999 15.2224 52.7776 0 33.9999 0ZM2.50118 34C2.50118 30.3474 3.1152 26.7899 4.32964 23.3997L7.60008 25.6713V51.1947C6.58341 49.637 5.70718 47.9887 4.97546 46.2596C3.33427 42.3778 2.50118 38.2532 2.50118 34ZM56.273 56.2731C53.3796 59.1664 50.0107 61.438 46.2602 63.0245C42.3784 64.6665 38.2538 65.4987 34 65.4987C29.7469 65.4987 25.6222 64.6665 21.7406 63.0245C17.9894 61.438 14.621 59.1664 11.7271 56.2731C10.82 55.366 9.96839 54.405 9.17698 53.3954H26.5843L33.4394 48.4326V21.4208L26.5843 16.3162H7.92627C9.03865 14.68 10.3085 13.1465 11.7271 11.7272C14.621 8.83318 17.9894 6.56165 21.7406 4.97561C25.6222 3.33359 29.7469 2.50133 34 2.50133C38.2538 2.50133 42.3785 3.33359 46.2602 4.97561C50.0106 6.56165 53.3796 8.83318 56.273 11.7272C57.6923 13.1464 58.9613 14.68 60.0737 16.3162H55.0968L53.9787 18.7849L50.6557 16.3162H42.9245L36.119 21.4208V48.4326L42.8926 53.3954H58.8238C58.0323 54.4051 57.1805 55.3661 56.273 56.2731ZM14.5501 24.8034H20.7756C22.5175 24.8034 23.929 26.2149 23.929 27.9568V41.9157C23.929 43.657 22.5175 45.069 20.7756 45.069H17.0407V26.6084L14.5501 24.8034ZM61.2307 49.8468V40.2219H52.4203V45.069H48.6147C46.95 45.069 45.6008 43.72 45.6008 42.0553V26.6119L43.1087 24.8034H52.4203V30.0943H60.4962L62.1027 19.7549C62.4328 20.4056 62.7402 21.0677 63.0243 21.7398C64.6663 25.6215 65.4988 29.7462 65.4988 34C65.4988 38.2532 64.6663 42.3778 63.0243 46.2595C62.5034 47.4922 61.9043 48.6905 61.2307 49.8468Z" fill="white"/>
</g>
<defs>
<clipPath id="clip0_11315_4481">
<rect width="67.9999" height="68" fill="white"/>
</clipPath>
</defs>
</svg>
