<svg width="70" height="68" viewBox="0 0 70 68" fill="none" xmlns="http://www.w3.org/2000/svg">
<path d="M49.9573 28.7807L45.3363 26.1409L35.6752 31.6606C35.3595 31.841 35.0011 31.9359 34.6364 31.9359C34.2718 31.9359 33.9136 31.841 33.5979 31.6606L23.9362 26.1409L23.5641 25.9281C23.2485 25.7477 22.9863 25.4883 22.8039 25.1757C22.6216 24.8633 22.5259 24.5091 22.5259 24.1481V12.6829C22.5256 12.322 22.6216 11.9676 22.8038 11.6549C22.9861 11.3425 23.2483 11.0829 23.5641 10.9027L33.5979 5.17006C33.9136 4.98979 34.2718 4.89487 34.6364 4.89487C35.0011 4.89487 35.3592 4.98979 35.6752 5.17006L45.7087 10.9027C46.0244 11.0829 46.2868 11.3425 46.4691 11.6549C46.6514 11.9676 46.7472 12.322 46.7472 12.6829V23.6605L51.117 26.1571V10.3537C51.117 9.99285 51.021 9.63833 50.8387 9.32594C50.6563 9.01341 50.3941 8.75395 50.0782 8.57382L35.5541 0.2756C35.2384 0.0950579 34.8801 0 34.5154 0C34.1509 0 33.7925 0.0950579 33.4768 0.2756L18.9529 8.57491C18.6371 8.75532 18.3747 9.0145 18.1924 9.32703C18.0101 9.63956 17.9141 9.99394 17.9141 10.3546V26.9511C17.9142 27.3257 18.0177 27.6932 18.2137 28.0137L19.4353 28.7113L34.4745 37.3038C34.7593 37.3095 35.0423 37.2572 35.3058 37.1506C35.3911 37.1158 35.4739 37.0756 35.5538 37.0303L49.9744 28.7911L49.9573 28.7807Z" fill="white"/>
<path d="M44.913 22.6159V13.6859C44.913 13.3252 44.8172 12.9707 44.6348 12.6583C44.4525 12.3459 44.1902 12.0865 43.8745 11.9062L35.5967 7.17657C35.2808 6.99603 34.9227 6.90125 34.558 6.90125C34.1934 6.90125 33.8351 6.99603 33.5194 7.17657L25.2413 11.9062C24.9256 12.0865 24.6634 12.3461 24.4813 12.6585C24.299 12.9709 24.2031 13.3252 24.2031 13.6859V23.1451C24.2031 23.5057 24.2991 23.8603 24.4813 24.1727C24.6637 24.4852 24.9256 24.7448 25.2413 24.9253L25.6508 25.1591L33.5185 29.6547C33.8342 29.8351 34.1925 29.9299 34.5571 29.9299C34.9217 29.9299 35.2798 29.8351 35.5955 29.6547L43.539 25.1164L38.4814 22.2266L35.5638 23.8936C35.2478 24.074 34.8897 24.1691 34.5251 24.1691C34.1601 24.1691 33.802 24.074 33.4861 23.8936L30.6755 22.2876L30.532 22.2058C30.2161 22.0254 29.9537 21.7658 29.7716 21.4535C29.5892 21.1409 29.4932 20.7864 29.4932 20.4255V17.0497C29.4932 16.6889 29.5892 16.3343 29.7716 16.0219C29.954 15.7092 30.2161 15.4499 30.532 15.2695L33.4861 13.5814C33.802 13.4012 34.1601 13.3061 34.5248 13.3061C34.8894 13.3061 35.2478 13.4012 35.5635 13.5814L38.519 15.2696C38.8348 15.45 39.0969 15.7095 39.2792 16.0219C39.4616 16.3343 39.5576 16.6888 39.5576 17.0495V19.556L44.913 22.6159Z" fill="white"/>
<path d="M33.2024 41.0501C33.2018 40.5792 33.038 40.1226 32.7379 39.7573L18.033 31.3555V36.5666L27.6736 42.0741C27.9893 42.2544 28.2512 42.514 28.4336 42.8266C28.6158 43.139 28.7115 43.4936 28.7115 43.8542V55.3186C28.7115 55.6796 28.6158 56.0338 28.4336 56.3463C28.2515 56.6589 27.9893 56.9182 27.6736 57.0987L27.6393 57.1184L17.6399 62.8315C17.3242 63.012 16.966 63.1071 16.6013 63.1071C16.2367 63.1071 15.8786 63.012 15.5629 62.8315L5.52917 57.099C5.21335 56.9187 4.95101 56.6591 4.76895 56.3468C4.58662 56.0342 4.49074 55.6797 4.49088 55.3189V43.8535C4.49074 43.4927 4.58662 43.1382 4.76895 42.8257C4.95128 42.5132 5.21349 42.2537 5.52917 42.0733L15.339 36.4686V31.0994L1.03843 39.2698C0.722605 39.4501 0.4604 39.7096 0.278073 40.022C0.0958823 40.3343 -0.000136196 40.6889 5.83732e-07 41.0495V57.6461C-0.000272975 58.0071 0.0956082 58.3613 0.277662 58.674C0.459852 58.9864 0.721922 59.246 1.03761 59.4265L15.5619 67.7247C15.8778 67.905 16.236 67.9999 16.6006 67.9999C16.9652 67.9999 17.3234 67.905 17.6391 67.7247L31.9212 59.5649L32.1637 59.4265C32.4794 59.246 32.7416 58.9865 32.924 58.674C33.1064 58.3616 33.2024 58.0071 33.2024 57.6461V41.0501Z" fill="white"/>
<path d="M68.228 39.2697L54.1673 31.2368L53.7032 30.9715C53.2907 30.7361 52.809 30.6483 52.3387 30.7224L51.2323 31.3546L36.527 39.7561C36.2268 40.1215 36.0628 40.5779 36.0625 41.0488V57.1488L36.1335 57.1087L40.5535 54.5832V43.6161C40.5535 43.2554 40.6495 42.9009 40.8319 42.5885C41.0141 42.2761 41.2761 42.0167 41.5918 41.8364L47.5256 38.4462L51.232 36.3288L51.6257 36.1039C51.9415 35.9234 52.2997 35.8283 52.6644 35.8283C53.029 35.8283 53.3871 35.9234 53.7028 36.1039L54.1669 36.3687L57.589 38.3233L63.7363 41.8358C64.0521 42.0161 64.3143 42.2756 64.4966 42.588C64.6789 42.9004 64.775 43.2549 64.7748 43.6157V55.0806C64.775 55.4414 64.6789 55.796 64.4966 56.1085C64.3143 56.4209 64.0521 56.6805 63.7363 56.8609L53.7028 62.5936C53.3871 62.7738 53.029 62.8688 52.6644 62.8688C52.2997 62.8688 51.9415 62.7738 51.6257 62.5936L41.9545 57.068L37.4635 59.6336L51.6257 67.7248C51.9415 67.9051 52.2997 68 52.6644 68C53.029 68 53.3871 67.9051 53.7028 67.7248L68.2277 59.4266C68.5434 59.2461 68.8053 58.9865 68.9874 58.6741C69.1696 58.3614 69.2654 58.0072 69.2652 57.6462V41.0502C69.2654 40.6894 69.1697 40.335 68.9876 40.0225C68.8057 39.7098 68.5437 39.4502 68.228 39.2697Z" fill="white"/>
<path d="M12.3818 53.1383C12.066 52.9579 11.8038 52.6984 11.6214 52.3859C11.4391 52.0734 11.3431 51.7189 11.3431 51.3579V47.9829C11.3431 47.6219 11.4391 47.2674 11.6214 46.955C11.8038 46.6426 12.066 46.3833 12.3818 46.2029L15.336 44.5148L15.3394 44.5132V38.4325L7.21058 43.0771C6.89489 43.2576 6.63268 43.5169 6.45036 43.8293C6.26803 44.1417 6.17201 44.4961 6.17188 44.8569V54.3155C6.17188 54.6762 6.26803 55.0307 6.45036 55.3432C6.63268 55.6556 6.89489 55.9151 7.21058 56.0956L15.4879 60.8253C15.8036 61.0055 16.162 61.1006 16.5266 61.1006C16.8913 61.1006 17.2495 61.0055 17.5653 60.8253L25.8429 56.0956L25.8461 56.0937C26.1611 55.9132 26.4228 55.654 26.6047 55.342C26.7865 55.0297 26.8822 54.6758 26.8821 54.3158V44.8566C26.8822 44.4958 26.7865 44.1416 26.6041 43.829C26.4219 43.5167 26.16 43.2572 25.8446 43.0767L18.035 38.6145V44.8692L20.3684 46.2025C20.684 46.3829 20.9462 46.6424 21.1286 46.9547C21.3109 47.2671 21.4066 47.6215 21.4066 47.9822V51.3587C21.4066 51.6904 21.3254 52.0176 21.1697 52.3115C21.0142 52.6053 20.7891 52.8576 20.5133 53.0468C20.4663 53.0791 20.4183 53.1101 20.3679 53.139L17.4136 54.8265C17.098 55.007 16.7399 55.1021 16.3752 55.1021C16.0106 55.1021 15.6523 55.007 15.3365 54.8265L12.3818 53.1383Z" fill="white"/>
<path d="M56.55 53.1386L53.5957 54.8261C53.28 55.0066 52.9219 55.1014 52.5573 55.1014C52.1926 55.1014 51.8344 55.0066 51.5187 54.8261L48.6983 53.215L43.673 56.0863L51.5507 60.5867C51.8667 60.7671 52.2247 60.8622 52.5893 60.8622C52.9539 60.8622 53.3123 60.7671 53.628 60.5867L61.9057 55.8572C62.2214 55.6768 62.4838 55.4174 62.6659 55.105C62.8483 54.7926 62.9443 54.4382 62.944 54.0773V44.6186C62.9443 44.2578 62.8483 43.9033 62.6659 43.5909C62.4838 43.2784 62.2214 43.0189 61.9057 42.8384L57.5891 40.3721L54.167 38.4174L53.628 38.1096C53.3123 37.929 52.9539 37.8341 52.5893 37.8341C52.2247 37.8341 51.8664 37.929 51.5507 38.1096L51.2321 38.2916L47.5257 40.409L43.2731 42.8388C42.9574 43.0191 42.6951 43.2785 42.5127 43.5911C42.3303 43.9035 42.2344 44.258 42.2344 44.6189V53.624L47.526 50.6V47.9822C47.5261 47.6215 47.6221 47.267 47.8043 46.9546C47.9866 46.6422 48.249 46.3828 48.5647 46.2025L51.2324 44.6783L51.5187 44.5144C51.8347 44.334 52.1927 44.239 52.5574 44.239C52.9219 44.239 53.2803 44.334 53.596 44.5144L54.167 44.8409L56.5504 46.2025C56.8661 46.383 57.1283 46.6424 57.3105 46.9547C57.4928 47.2673 57.5887 47.6217 57.5888 47.9823V51.3585C57.5887 51.7191 57.4925 52.0737 57.3102 52.386C57.1279 52.6984 56.8657 52.958 56.55 53.1386Z" fill="white"/>
</svg>
